<svg width="37" height="36" viewBox="0 0 37 36" fill="none" xmlns="http://www.w3.org/2000/svg">
<g clip-path="url(#clip0_7001_55324)">
<path d="M4.84863 19.2014H7.78848L7.44866 25.5678L12.4353 16.799L9.49549 16.807L9.83532 10.4326L4.84863 19.2014Z" fill="#2C2D2E"/>
<path d="M14.7119 16.7597C14.1666 16.7597 13.7004 16.6076 13.3289 16.2952C12.9575 15.9909 12.7678 15.5665 12.7678 15.03H13.321C13.321 15.4064 13.4475 15.6946 13.7083 15.9029C13.9611 16.1111 14.301 16.2152 14.7119 16.2152C15.0596 16.2152 15.352 16.1271 15.5891 15.9509C15.8262 15.7747 15.9448 15.5425 15.9448 15.2462C15.9448 14.9739 15.842 14.7577 15.6286 14.5975C15.4153 14.4374 15.1071 14.2772 14.704 14.1251C14.1508 13.9169 13.7873 13.7487 13.6055 13.6286C13.163 13.3403 12.9417 12.9399 12.9417 12.4274C12.9417 11.9869 13.1076 11.6266 13.4317 11.3623C13.7636 11.0981 14.1508 10.9619 14.6092 10.9619C15.0913 10.9619 15.5022 11.1061 15.842 11.3943C16.1739 11.6826 16.3478 12.075 16.3478 12.5635H15.7946C15.7946 12.2272 15.684 11.9709 15.4627 11.7787C15.2414 11.5945 14.9569 11.4985 14.6092 11.4985C14.2931 11.4985 14.0244 11.5785 13.811 11.7467C13.5976 11.9069 13.487 12.1391 13.487 12.4274C13.487 12.7157 13.5897 12.9399 13.7873 13.1001C13.9849 13.2602 14.2931 13.4204 14.704 13.5805C15.2651 13.8048 15.6445 13.9809 15.8341 14.1011C16.2688 14.3893 16.4901 14.7737 16.4901 15.2542C16.4901 15.7107 16.3162 16.071 15.9606 16.3513C15.6128 16.6236 15.194 16.7597 14.7119 16.7597Z" fill="#2C2D2E"/>
<path d="M20.2438 11.0576V11.5861H18.7028V16.6632H18.1496V11.5861H16.6085V11.0576H18.7028H20.2438V11.0576Z" fill="#2C2D2E"/>
<path d="M24.125 16.6632L23.6113 15.2858H20.9875L20.4738 16.6632H19.889L22.0149 11.0576H22.5839L24.7098 16.6632H24.125ZM21.1851 14.7573H23.4137L22.2994 11.7543L21.1851 14.7573Z" fill="#2C2D2E"/>
<path d="M28.9527 16.6632L27.0086 14.421H25.7757V16.6632H25.2225V11.0576H25.7757H27.1982C27.6566 11.0576 28.0517 11.2258 28.3679 11.5541C28.6919 11.8824 28.8578 12.2828 28.8578 12.7473C28.8578 13.1237 28.7393 13.468 28.518 13.7723C28.2888 14.0766 27.9964 14.2688 27.6408 14.3729L29.6481 16.6792H28.9527V16.6632ZM25.7757 11.5861V13.8925H27.1982C27.5064 13.8925 27.7672 13.7803 27.9806 13.5561C28.194 13.3319 28.3046 13.0596 28.3046 12.7393C28.3046 12.419 28.194 12.1467 27.9806 11.9225C27.7672 11.6983 27.5064 11.5861 27.1982 11.5861H25.7757V11.5861Z" fill="#2C2D2E"/>
<path d="M32.8493 11.0576V11.5861H31.3082V16.6632H30.755V11.5861H29.214V11.0576H31.3082H32.8493V11.0576Z" fill="#2C2D2E"/>
<path d="M14.3801 24.8717L12.5466 18.9058H14.0166L15.2336 23.2941L16.4506 18.9058H17.9206L16.0871 24.8717H14.3801V24.8717Z" fill="#2C2D2E"/>
<path d="M23.3732 24.0952C22.7805 24.6877 22.0535 24.992 21.2 24.992C20.3465 24.992 19.6273 24.6958 19.0267 24.0952C18.434 23.5026 18.1337 22.7658 18.1337 21.8849C18.1337 21.0121 18.434 20.2753 19.0267 19.6747C19.6194 19.0821 20.3465 18.7778 21.2 18.7778C22.0535 18.7778 22.7726 19.0741 23.3732 19.6747C23.9659 20.2673 24.2663 21.0041 24.2663 21.8849C24.2663 22.7658 23.9659 23.5026 23.3732 24.0952ZM19.9829 23.1662C20.3069 23.4946 20.7179 23.6627 21.2079 23.6627C21.6978 23.6627 22.1009 23.4946 22.4328 23.1662C22.7568 22.8379 22.9228 22.4135 22.9228 21.8849C22.9228 21.3644 22.7568 20.94 22.4328 20.6037C22.1009 20.2753 21.6978 20.1072 21.2079 20.1072C20.7179 20.1072 20.3148 20.2753 19.9829 20.6037C19.6589 20.932 19.493 21.3564 19.493 21.8849C19.485 22.4135 19.651 22.8379 19.9829 23.1662Z" fill="#2C2D2E"/>
<path d="M26.5739 23.5584H28.5892V24.8717H25.2305V18.9058H26.5739V23.5584Z" fill="#2C2D2E"/>
<path d="M32.8415 18.9058V20.2191H31.498V24.8717H30.1545V20.2191H28.811V18.9058H31.498H32.8415Z" fill="#2C2D2E"/>
</g>
<defs>
<clipPath id="clip0_7001_55324">
<rect width="36" height="36" fill="white" transform="translate(0.848633)"/>
</clipPath>
</defs>
</svg>
