<svg xmlns="http://www.w3.org/2000/svg" width="16" height="16" viewBox="0 0 16 16">
    <path
        d="M6.33691 3.20022C6.23996 3.19939 6.14345 3.21768 6.05371 3.25393C5.96399 3.29019 5.88203 3.34347 5.81348 3.41116C5.74498 3.47883 5.69099 3.55991 5.6543 3.64846C5.61768 3.73698 5.59877 3.83214 5.59961 3.92776C5.6005 4.02338 5.62096 4.11822 5.65918 4.20608C5.69745 4.29395 5.75357 4.37303 5.82324 4.43948L9.4375 8.00882L5.82324 11.5782C5.6903 11.7141 5.61659 11.896 5.61816 12.085C5.61983 12.274 5.69665 12.4552 5.83203 12.5889C5.9674 12.7225 6.15039 12.7982 6.3418 12.7998C6.53325 12.8015 6.71775 12.729 6.85547 12.5977L10.9863 8.51858C11.1231 8.38338 11.2002 8.19995 11.2002 8.00882C11.2002 7.81767 11.1232 7.63424 10.9863 7.49905L6.85547 3.41995C6.78813 3.35114 6.7072 3.29658 6.61816 3.25882C6.52923 3.22111 6.43369 3.2011 6.33691 3.20022Z" />
</svg>