<svg xmlns="http://www.w3.org/2000/svg" width="16" height="16" viewBox="0 0 16 16">
    <path
        d="M9.66309 12.7998C9.76004 12.8006 9.85655 12.7823 9.94629 12.7461C10.036 12.7098 10.118 12.6565 10.1865 12.5888C10.255 12.5212 10.309 12.4401 10.3457 12.3515C10.3823 12.263 10.4012 12.1679 10.4004 12.0722C10.3995 11.9766 10.379 11.8818 10.3408 11.7939C10.3026 11.7061 10.2464 11.627 10.1768 11.5605L6.5625 7.99118L10.1768 4.42185C10.3097 4.28593 10.3834 4.10395 10.3818 3.91501C10.3802 3.72596 10.3034 3.54479 10.168 3.41111C10.0326 3.27749 9.84961 3.20181 9.6582 3.20017C9.46675 3.19853 9.28225 3.27097 9.14453 3.40232L5.01367 7.48142C4.87686 7.61662 4.7998 7.80005 4.7998 7.99118C4.79984 8.18233 4.87681 8.36576 5.01367 8.50095L9.14453 12.5801C9.21187 12.6489 9.2928 12.7034 9.38184 12.7412C9.47077 12.7789 9.56631 12.7989 9.66309 12.7998Z" />
</svg>