<svg xmlns="http://www.w3.org/2000/svg" width="17" height="16" viewBox="0 0 17 16">
    <path
        d="M7.83301 8.66699V14H3.83301C3.4795 13.9999 3.1406 13.8593 2.89062 13.6094C2.64065 13.3594 2.50009 13.0205 2.5 12.667V8.66699H7.83301ZM14.5 8.66699V12.667C14.4999 13.0205 14.3593 13.3594 14.1094 13.6094C13.8594 13.8593 13.5205 13.9999 13.167 14H9.16699V8.66699H14.5ZM7.83301 7.33301H2.5V3.33301C2.50009 2.9795 2.64065 2.6406 2.89062 2.39062C3.1406 2.14065 3.4795 2.00009 3.83301 2H7.83301V7.33301ZM13.167 2C13.5205 2.00009 13.8594 2.14065 14.1094 2.39062C14.3593 2.6406 14.4999 2.9795 14.5 3.33301V7.33301H9.16699V2H13.167Z" />
</svg>