<svg xmlns="http://www.w3.org/2000/svg" width="16" height="16" viewBox="0 0 16 16">
    <path
        d="M10.8613 4.19538C11.1216 3.93503 11.5443 3.93503 11.8046 4.19538C12.0647 4.4557 12.0648 4.87747 11.8046 5.13777L8.94233 8.00007L11.8046 10.8614L11.8496 10.9122C12.0631 11.174 12.0487 11.5607 11.8046 11.8048C11.5606 12.0488 11.1739 12.0632 10.9121 11.8497L10.8613 11.8048L7.99995 8.94245L5.13765 11.8048C4.87735 12.0649 4.45557 12.0649 4.19526 11.8048C3.93491 11.5444 3.93491 11.1217 4.19526 10.8614L7.05659 8.00007L4.19526 5.13777C3.93491 4.87742 3.93491 4.45573 4.19526 4.19538C4.45561 3.93503 4.8773 3.93503 5.13765 4.19538L7.99995 7.05671L10.8613 4.19538Z" />
</svg>