<svg xmlns="http://www.w3.org/2000/svg" width="12" height="12" viewBox="0 0 12 12">
    <path
        d="M6 1C8.7615 1 11 3.2385 11 6C11 8.7615 8.7615 11 6 11C3.2385 11 1 8.7615 1 6C1 3.2385 3.2385 1 6 1ZM6 2C4.93913 2 3.92202 2.42173 3.17188 3.17188C2.42173 3.92202 2 4.93913 2 6C2 7.06087 2.42173 8.07798 3.17188 8.82812C3.92202 9.57827 4.93913 10 6 10C7.06087 10 8.07798 9.57827 8.82812 8.82812C9.57827 8.07798 10 7.06087 10 6C10 4.93913 9.57827 3.92202 8.82812 3.17188C8.07798 2.42173 7.06087 2 6 2ZM6 3C6.12234 3.00002 6.24055 3.04475 6.33203 3.12598C6.42351 3.20732 6.48174 3.31983 6.49609 3.44141L6.5 3.5V5.79297L7.85352 7.14648C7.94319 7.23646 7.99515 7.3574 7.99902 7.48438C8.00285 7.61129 7.958 7.73484 7.87402 7.83008C7.79004 7.92525 7.67323 7.985 7.54688 7.99707C7.42041 8.00912 7.29386 7.97224 7.19336 7.89453L7.14648 7.85352L5.64648 6.35352C5.56877 6.27574 5.51926 6.17443 5.50488 6.06543L5.5 6V3.5C5.5 3.36739 5.55272 3.24025 5.64648 3.14648C5.74025 3.05272 5.86739 3 6 3Z" />
</svg>