<svg xmlns="http://www.w3.org/2000/svg" width="24" height="24" viewBox="0 0 24 24">
    <path
        d="M16.2929 6.29289C16.6834 5.90237 17.3164 5.90237 17.707 6.29289C18.0973 6.68343 18.0974 7.31648 17.707 7.70696L13.414 11.9999L17.707 16.2929L17.7753 16.3691C18.0955 16.7618 18.073 17.3409 17.707 17.707C17.3409 18.073 16.7618 18.0955 16.3691 17.7753L16.2929 17.707L11.9999 13.414L7.70696 17.707C7.31648 18.0974 6.68343 18.0973 6.29289 17.707C5.90237 17.3164 5.90237 16.6834 6.29289 16.2929L10.5859 11.9999L6.29289 7.70696C5.90237 7.31643 5.90237 6.68342 6.29289 6.29289C6.68342 5.90237 7.31643 5.90237 7.70696 6.29289L11.9999 10.5859L16.2929 6.29289Z" />
</svg>