<svg xmlns="http://www.w3.org/2000/svg" width="16" height="16" viewBox="0 0 16 16">
    <path
        d="M4.66699 14H2.66699C2.31337 14 1.97368 13.8594 1.72363 13.6094C1.47376 13.3594 1.33309 13.0204 1.33301 12.667V8.66699C1.33301 8.31337 1.47358 7.97368 1.72363 7.72363C1.97368 7.47358 2.31337 7.33301 2.66699 7.33301H4.66699V14ZM8.66699 2C9.0205 2.00009 9.3594 2.14065 9.60938 2.39062C9.85935 2.6406 9.99991 2.9795 10 3.33301V14H6V3.33301C6.00009 2.9795 6.14065 2.6406 6.39062 2.39062C6.6406 2.14065 6.9795 2.00009 7.33301 2H8.66699ZM13.333 5.33301C13.6866 5.33301 14.0263 5.47358 14.2764 5.72363C14.5264 5.97368 14.667 6.31337 14.667 6.66699V12.667C14.6669 13.0204 14.5262 13.3594 14.2764 13.6094C14.0263 13.8594 13.6866 14 13.333 14H11.333V5.33301H13.333Z" />
</svg>