<svg xmlns="http://www.w3.org/2000/svg" width="17" height="16" viewBox="0 0 17 16">
    <path
        d="M11.6128 2.66699C11.8291 2.66697 12.0424 2.71959 12.2339 2.82031C12.4254 2.9211 12.5899 3.06676 12.7124 3.24512L12.77 3.33887L15.1567 7.51562C15.2525 7.68318 15.311 7.86928 15.3276 8.06152L15.3335 8.17773V11.1758C15.3335 11.3411 15.3026 11.5051 15.2427 11.6592L15.1929 11.7725L14.4468 13.2627C14.3443 13.4679 14.1906 13.6431 14.0005 13.7715C13.8104 13.8999 13.5905 13.9776 13.3618 13.9961L13.2544 14H11.9995C11.6634 14 11.3398 13.873 11.0933 13.6445C10.8466 13.4158 10.6947 13.102 10.6694 12.7666L10.6665 12.667H6.6665C6.66653 13.0031 6.53949 13.3267 6.31104 13.5732C6.08231 13.8199 5.76854 13.9718 5.43311 13.9971L5.3335 14H4.07861C3.8494 13.9999 3.62399 13.9407 3.42432 13.8281C3.22472 13.7156 3.0577 13.5534 2.93896 13.3574L2.88623 13.2627L2.14014 11.7725C2.06641 11.6247 2.02062 11.4642 2.00537 11.2998L1.99951 11.1758V8.17773C1.99951 7.98497 2.04185 7.7942 2.12256 7.61914L2.17627 7.51562L4.56299 3.33887C4.67038 3.15094 4.82182 2.99126 5.00439 2.875C5.18687 2.75891 5.39529 2.68869 5.61084 2.6709L5.72021 2.66699H11.6128ZM3.3335 8.17773V11.1758L4.07861 12.667H5.3335V12.0664C5.33347 11.8859 5.39963 11.7117 5.52002 11.5771C5.64059 11.4426 5.80719 11.3566 5.98682 11.3369L6.06689 11.333H11.2661C11.4468 11.3329 11.6217 11.3999 11.7563 11.5205C11.8908 11.641 11.9758 11.8069 11.9956 11.9863L11.9995 12.0664V12.667H13.2544L13.9995 11.1758V8.17773L11.6128 4H5.72021L3.3335 8.17773ZM11.7026 7.40332C11.8607 7.32468 12.044 7.31218 12.2114 7.36816C12.3787 7.42423 12.5173 7.54436 12.5962 7.70215C12.6733 7.8605 12.6851 8.04286 12.6294 8.20996C12.5736 8.37721 12.4543 8.51637 12.2974 8.59668C11.2014 9.14335 9.87317 9.33301 8.6665 9.33301C7.43584 9.33301 6.15324 9.14499 5.03857 8.59766C4.88163 8.51692 4.76183 8.37823 4.70557 8.21094C4.64945 8.0438 4.66068 7.86117 4.73682 7.70215C4.81131 7.5565 4.93716 7.44283 5.08936 7.38281C5.24145 7.32294 5.41023 7.32042 5.56396 7.37598L5.7417 7.45312L5.90479 7.51758L6.05029 7.57031L6.22412 7.62793L6.42529 7.68945L6.65186 7.75L6.90283 7.80957L7.17725 7.86426C7.66859 7.95424 8.16699 7.99994 8.6665 8C9.67717 8 10.7786 7.84532 11.7026 7.40332Z" />
</svg>