<svg xmlns="http://www.w3.org/2000/svg" width="17" height="16" viewBox="0 0 17 16">
    <path
        d="M12.9355 3.33301C13.112 3.33313 13.2813 3.40357 13.4062 3.52832C13.5312 3.65334 13.6015 3.82319 13.6015 4V9.33301C13.6015 9.50982 13.5312 9.67966 13.4062 9.80469C13.2813 9.92954 13.1121 9.99988 12.9355 10C12.7587 10 12.5888 9.92967 12.4638 9.80469C12.3388 9.67966 12.2685 9.50982 12.2685 9.33301V5.60938L5.63473 12.2422C5.50899 12.3636 5.34077 12.4312 5.16598 12.4297C4.99122 12.4281 4.82373 12.358 4.70016 12.2344C4.57671 12.1108 4.50636 11.9432 4.50484 11.7686C4.50343 11.5939 4.57099 11.4254 4.69234 11.2998L11.3261 4.66699H7.60152C7.42478 4.66694 7.25483 4.59666 7.12984 4.47168C7.00488 4.34666 6.93551 4.17677 6.93551 4C6.93551 3.82323 7.00488 3.65334 7.12984 3.52832C7.25483 3.40334 7.42478 3.33306 7.60152 3.33301H12.9355Z" />
</svg>