<svg xmlns="http://www.w3.org/2000/svg" width="32" height="32" viewBox="0 0 32 32">
    <path
        d="M15.8599 2.59033C17.0775 2.55739 18.2702 2.94248 19.2388 3.68115L19.4653 3.86279L19.9663 4.28955C20.3312 4.60095 20.7738 4.80797 21.2466 4.88916L21.4839 4.91845L22.1411 4.97216C23.3586 5.06934 24.5059 5.58097 25.3911 6.42236C26.2765 7.26402 26.8468 8.38496 27.0054 9.59619L27.0327 9.86279L27.0864 10.521C27.1242 10.9987 27.2896 11.4577 27.5659 11.8491L27.7134 12.0386L28.1421 12.5395C28.9321 13.4666 29.3815 14.6364 29.4146 15.854C29.4475 17.0717 29.0624 18.2643 28.3237 19.2329L28.1421 19.4595L27.7144 19.9614C27.403 20.3262 27.196 20.7681 27.1147 21.2407L27.0855 21.478L27.0327 22.1362C26.9355 23.3537 26.4231 24.501 25.5815 25.3862C24.7399 26.2715 23.6198 26.8409 22.4087 26.9995L22.1411 27.0278L21.4839 27.0815C21.0062 27.1193 20.5472 27.2847 20.1558 27.561L19.9663 27.7095L19.4634 28.1362C18.5364 28.9263 17.3665 29.3755 16.1489 29.4087C14.9313 29.4419 13.7387 29.0573 12.77 28.3188L12.5454 28.1372L12.0435 27.7095C11.6785 27.398 11.2361 27.1901 10.7632 27.1089L10.5259 27.0815L9.86866 27.0278C8.6511 26.9306 7.50392 26.4182 6.61866 25.5767C5.73333 24.735 5.16399 23.615 5.00537 22.4038L4.97705 22.1372L4.92334 21.478C4.88553 21.0006 4.72003 20.5422 4.44385 20.1509L4.29541 19.9614L3.86768 19.4585C3.07765 18.5314 2.62826 17.3617 2.59522 16.144C2.56223 14.9264 2.94739 13.7337 3.68604 12.7651L3.86768 12.5395L4.29444 12.0386C4.60595 11.6737 4.81284 11.2312 4.89405 10.7583L4.92334 10.521L4.97705 9.86377C5.07421 8.64614 5.58665 7.49909 6.42823 6.61377C7.26988 5.72842 8.38985 5.15811 9.60108 4.99951L9.86768 4.97216L10.5259 4.91845C11.0036 4.88069 11.4625 4.71441 11.854 4.43799L12.0435 4.29052L12.5454 3.86279C13.4726 3.07275 14.6422 2.62332 15.8599 2.59033ZM20.0005 10.6831C19.6509 10.6801 19.3135 10.8142 19.062 11.0571L11.062 19.0571C10.9347 19.1801 10.833 19.3271 10.7632 19.4897C10.6933 19.6524 10.6573 19.8274 10.6558 20.0044C10.6542 20.1814 10.6874 20.3572 10.7544 20.521C10.8214 20.6847 10.9204 20.8334 11.0454 20.9585C11.1706 21.0837 11.32 21.1834 11.4839 21.2505C11.6477 21.3175 11.8235 21.3507 12.0005 21.3491C12.1774 21.3475 12.3526 21.3115 12.5151 21.2417C12.6777 21.1718 12.8248 21.0701 12.9478 20.9429L20.9478 12.9429C21.1906 12.6914 21.3248 12.354 21.3218 12.0044C21.3187 11.6549 21.1783 11.3209 20.9312 11.0737C20.684 10.8266 20.35 10.6862 20.0005 10.6831ZM19.3384 17.3335C18.8081 17.3335 18.2994 17.5436 17.9243 17.9185C17.5492 18.2935 17.3384 18.8031 17.3384 19.3335C17.3385 19.8638 17.5493 20.3726 17.9243 20.7476C18.2994 21.1225 18.8081 21.3335 19.3384 21.3335C19.8687 21.3335 20.3774 21.1225 20.7524 20.7476C21.1274 20.3726 21.3383 19.8638 21.3384 19.3335C21.3384 18.8031 21.1275 18.2935 20.7524 17.9185C20.3774 17.5436 19.8687 17.3335 19.3384 17.3335ZM12.6714 10.6665C12.141 10.6666 11.6323 10.8774 11.2573 11.2524C10.8824 11.6275 10.6714 12.1361 10.6714 12.6665C10.6714 13.1969 10.8823 13.7055 11.2573 14.0806C11.6323 14.4556 12.141 14.6664 12.6714 14.6665C13.2017 14.6665 13.7104 14.4555 14.0855 14.0806C14.4605 13.7055 14.6714 13.1969 14.6714 12.6665C14.6714 12.1361 14.4605 11.6275 14.0855 11.2524C13.7104 10.8774 13.2018 10.6665 12.6714 10.6665Z" />
</svg>