<svg xmlns="http://www.w3.org/2000/svg" width="16" height="16" viewBox="0 0 16 16">
    <path
        d="M7.99991 2.89247C9.38115 1.76921 11.0224 1.77289 12.329 2.53407C13.7257 3.34806 14.7083 5.00063 14.665 6.9286C14.611 9.33527 12.7385 11.4584 9.54581 13.3544C9.07258 13.6357 8.57377 13.9999 7.99991 13.9999C7.43664 13.9998 6.91633 13.6287 6.45304 13.3534C3.26185 11.4581 1.38887 9.33454 1.33487 6.9286C1.29157 5.00064 2.27416 3.34872 3.67081 2.53407C4.97747 1.77343 6.61859 1.76915 7.99991 2.89247ZM11.6581 3.68641C10.7288 3.14513 9.56772 3.1652 8.56241 4.18251C8.48883 4.25659 8.401 4.31522 8.3046 4.35536C8.20815 4.39551 8.10439 4.41591 7.99991 4.41591C7.89549 4.41589 7.79163 4.39549 7.69522 4.35536C7.59907 4.31528 7.51184 4.25637 7.43839 4.18251C6.43306 3.16517 5.27104 3.14508 4.34171 3.68641C3.37911 4.24778 2.63522 5.43902 2.66788 6.90028C2.70534 8.57419 4.02823 10.3627 7.13468 12.2079C7.40661 12.3699 7.69067 12.5769 7.99991 12.663C8.3092 12.577 8.59319 12.3699 8.86515 12.2079C11.9718 10.3626 13.2946 8.57464 13.3319 6.8993C13.3653 5.43933 12.6208 4.24774 11.6581 3.68641Z" />
</svg>