<svg xmlns="http://www.w3.org/2000/svg" width="16" height="16" viewBox="0 0 16 16">
    <path
        d="M10.9453 2.66699C11.1617 2.66697 11.3749 2.71959 11.5664 2.82031C11.7579 2.9211 11.9224 3.06676 12.0449 3.24512L12.1025 3.33887L14.4893 7.51563C14.585 7.68318 14.6435 7.86928 14.6602 8.06152L14.666 8.17773V11.1758C14.666 11.3411 14.6351 11.5051 14.5752 11.6592L14.5254 11.7725L13.7793 13.2627C13.6768 13.4679 13.5231 13.6431 13.333 13.7715C13.1429 13.8999 12.923 13.9776 12.6943 13.9961L12.5869 14H11.332C10.9959 14 10.6723 13.873 10.4258 13.6445C10.1791 13.4158 10.0272 13.102 10.002 12.7666L9.99902 12.667H5.99902C5.99905 13.0031 5.87201 13.3267 5.64355 13.5732C5.41483 13.8199 5.10106 13.9718 4.76563 13.9971L4.66602 14H3.41113C3.18192 13.9999 2.95651 13.9407 2.75684 13.8281C2.55724 13.7156 2.39022 13.5534 2.27148 13.3574L2.21875 13.2627L1.47266 11.7725C1.39893 11.6247 1.35314 11.4642 1.33789 11.2998L1.33203 11.1758V8.17773C1.33203 7.98497 1.37437 7.7942 1.45508 7.61914L1.50879 7.51563L3.89551 3.33887C4.0029 3.15094 4.15434 2.99126 4.33691 2.875C4.51939 2.75891 4.72781 2.68869 4.94336 2.6709L5.05273 2.66699H10.9453ZM2.66602 8.17773V11.1758L3.41113 12.667H4.66602V12.0664C4.66599 11.8859 4.73215 11.7117 4.85254 11.5771C4.97311 11.4426 5.13971 11.3566 5.31934 11.3369L5.39941 11.333H10.5986C10.7793 11.3329 10.9543 11.3999 11.0889 11.5205C11.2233 11.641 11.3083 11.8069 11.3281 11.9863L11.332 12.0664V12.667H12.5869L13.332 11.1758V8.17773L10.9453 4H5.05273L2.66602 8.17773ZM11.0352 7.40332C11.1932 7.32468 11.3765 7.31218 11.5439 7.36816C11.7112 7.42423 11.8498 7.54436 11.9287 7.70215C12.0059 7.8605 12.0176 8.04286 11.9619 8.20996C11.9061 8.37721 11.7868 8.51637 11.6299 8.59668C10.5339 9.14335 9.20569 9.33301 7.99902 9.33301C6.76836 9.33301 5.48576 9.14499 4.37109 8.59766C4.21415 8.51692 4.09435 8.37823 4.03809 8.21094C3.98197 8.0438 3.9932 7.86117 4.06934 7.70215C4.14383 7.5565 4.26968 7.44283 4.42188 7.38281C4.57397 7.32294 4.74275 7.32042 4.89648 7.37598L5.07422 7.45313L5.2373 7.51758L5.38281 7.57031L5.55664 7.62793L5.75781 7.68945L5.98438 7.75L6.23535 7.80957L6.50977 7.86426C7.00111 7.95424 7.49951 7.99994 7.99902 8C9.00969 8 10.1112 7.84532 11.0352 7.40332Z" />
</svg>