<svg xmlns="http://www.w3.org/2000/svg" width="16" height="16" viewBox="0 0 16 16">
    <path
        d="M12.666 2C13.1963 2.00009 13.7051 2.21094 14.0801 2.58594C14.455 2.96099 14.666 3.46964 14.666 4V10.667C14.6659 11.1973 14.4551 11.7061 14.0801 12.0811C13.7051 12.4561 13.1963 12.6669 12.666 12.667H4.8877L2.66602 14.333C2.11677 14.7449 1.33228 14.3535 1.33203 13.667V4C1.33203 3.46964 1.543 2.96099 1.91797 2.58594C2.29296 2.21094 2.80172 2.00009 3.33203 2H12.666ZM3.33203 3.33301C3.15549 3.33309 2.98624 3.40358 2.86133 3.52832C2.7363 3.65334 2.66602 3.82319 2.66602 4V12.667L4.08789 11.5996C4.31863 11.4267 4.59933 11.333 4.8877 11.333H12.666C12.8427 11.3329 13.0118 11.2626 13.1367 11.1377C13.2617 11.0127 13.3319 10.8437 13.332 10.667V4C13.332 3.82319 13.2617 3.65334 13.1367 3.52832C13.0118 3.40358 12.8426 3.33309 12.666 3.33301H3.33203ZM7.33203 8C7.50184 8.00019 7.66553 8.06514 7.78906 8.18164C7.91262 8.29829 7.98711 8.4583 7.99707 8.62793C8.00694 8.79744 7.95176 8.96451 7.84277 9.09473C7.73372 9.22495 7.57883 9.30904 7.41016 9.3291L7.33203 9.33301H5.33203C5.16223 9.33274 4.99848 9.26794 4.875 9.15137C4.75169 9.03482 4.678 8.87543 4.66797 8.70605C4.65801 8.53646 4.71325 8.36955 4.82227 8.23926C4.93122 8.10908 5.08536 8.02505 5.25391 8.00488L5.33203 8H7.33203ZM10.666 5.33301C10.8426 5.33309 11.0118 5.40358 11.1367 5.52832C11.2617 5.65334 11.332 5.82319 11.332 6C11.332 6.17681 11.2617 6.34666 11.1367 6.47168C11.0118 6.59642 10.8426 6.66691 10.666 6.66699H5.33203C5.15549 6.66691 4.98624 6.59642 4.86133 6.47168C4.7363 6.34666 4.66602 6.17681 4.66602 6C4.66602 5.82319 4.7363 5.65334 4.86133 5.52832C4.98624 5.40358 5.15549 5.33309 5.33203 5.33301H10.666Z" />
</svg>