<svg xmlns="http://www.w3.org/2000/svg" width="16" height="16" viewBox="0 0 16 16">
    <path
        d="M11.999 8C12.1102 8 12.2194 8.02454 12.3184 8.07031L12.4141 8.12305L12.5 8.18848C12.5541 8.23575 12.6018 8.29012 12.6406 8.34961L12.6924 8.44238L13.3086 9.75L14.6768 9.95801C14.7866 9.9746 14.8908 10.0156 14.9814 10.0752L15.0684 10.1416L15.1436 10.2178C15.1899 10.2719 15.228 10.3326 15.2578 10.3965L15.2959 10.4951L15.3213 10.5977C15.3389 10.7015 15.3356 10.8091 15.3115 10.9121C15.2793 11.0493 15.2099 11.1771 15.1094 11.2803L15.1084 11.2812L14.1045 12.3057L14.3418 13.7568L14.3516 13.8613C14.3547 13.9665 14.3381 14.0727 14.2998 14.1719C14.2485 14.3042 14.1608 14.4226 14.0449 14.5107C13.9288 14.599 13.7888 14.6541 13.6406 14.665C13.4931 14.6758 13.3467 14.6419 13.2188 14.5713L11.999 13.9004L10.7803 14.5723H10.7793C10.6512 14.6422 10.5046 14.6743 10.3574 14.6631C10.2103 14.6518 10.0705 14.5982 9.95508 14.5107C9.83994 14.4234 9.75294 14.3059 9.70117 14.1748C9.64954 14.0438 9.63411 13.9011 9.65527 13.7627L9.65625 13.7578L9.89355 12.3057L8.8916 11.2822C8.79005 11.1791 8.71914 11.0509 8.68652 10.9131C8.65399 10.7754 8.65917 10.6304 8.70117 10.4951L8.74023 10.3965C8.78522 10.3 8.8497 10.2116 8.93164 10.1396L9.01855 10.0742C9.07926 10.0346 9.1457 10.0035 9.21582 9.98242L9.32422 9.95801L10.6895 9.75L11.3057 8.44336L11.3066 8.44238C11.3674 8.31413 11.4629 8.2025 11.585 8.12305L11.6807 8.07031C11.7794 8.02461 11.8881 8.00009 11.999 8ZM11.4893 10.4248C11.4175 10.5768 11.2736 10.6837 11.1074 10.709L9.91992 10.8887L10.7949 11.7812C10.9073 11.8961 10.9586 12.0582 10.9326 12.2168L10.7305 13.4453L11.7559 12.8818C11.9074 12.7985 12.0917 12.7986 12.2432 12.8818L13.2666 13.4453L13.0664 12.2168C13.0405 12.0583 13.0918 11.896 13.2041 11.7812L14.0781 10.8887L12.8906 10.709C12.7246 10.6835 12.5814 10.5767 12.5098 10.4248L11.999 9.3418L11.4893 10.4248ZM10.9453 1.33301C11.4237 1.33307 11.8661 1.58956 12.1035 2.00488L14.4902 6.18262C14.6052 6.38398 14.666 6.61187 14.666 6.84375V7.33301C14.666 7.7012 14.3672 8 13.999 8C13.6308 8 13.332 7.7012 13.332 7.33301V6.84375L10.9453 2.66699H5.05273L2.66602 6.84375V9.84277L3.41113 11.333H4.66602V10.667C4.66602 10.2989 4.96399 10.0002 5.33203 10H7.33203C7.70022 10 7.99902 10.2988 7.99902 10.667C7.99885 11.035 7.70011 11.333 7.33203 11.333H5.99902C5.99902 12.0693 5.40225 12.6668 4.66602 12.667H3.41113C2.90616 12.667 2.44464 12.3813 2.21875 11.9297L1.47266 10.4385C1.38031 10.2536 1.33208 10.0495 1.33203 9.84277V6.84375C1.33203 6.61187 1.39284 6.38398 1.50781 6.18262L3.89453 2.00488C4.13191 1.58956 4.57436 1.33307 5.05273 1.33301H10.9453ZM10.8613 6.19531C11.1217 5.93513 11.5434 5.93502 11.8037 6.19531C12.064 6.45561 12.0639 6.87733 11.8037 7.1377C11.5629 7.37849 11.1187 7.58259 10.5488 7.72949C9.94539 7.88499 9.11001 8 7.99902 8C6.88804 8 6.05265 7.88498 5.44922 7.72949C4.95054 7.60095 4.54805 7.42876 4.29395 7.22656L4.19434 7.1377L4.14844 7.08691C3.93517 6.82507 3.95037 6.43928 4.19434 6.19531C4.4383 5.95135 4.82409 5.93615 5.08594 6.14941L5.13672 6.19531L5.1582 6.20703C5.21797 6.24194 5.40138 6.33934 5.78223 6.4375C6.25655 6.55974 6.97691 6.66699 7.99902 6.66699C9.02114 6.66699 9.7415 6.55974 10.2158 6.4375C10.7221 6.30702 10.8788 6.17764 10.8613 6.19531Z" />
</svg>