<svg xmlns="http://www.w3.org/2000/svg" width="16" height="16" viewBox="0 0 16 16">
    <path
        d="M7.00055 1.33301C7.38691 1.33304 7.76666 1.37171 8.13239 1.44629C8.30561 1.48146 8.45857 1.58411 8.55621 1.73145C8.6538 1.87876 8.68895 2.05924 8.65387 2.23242C8.61869 2.40567 8.51608 2.5586 8.36871 2.65625C8.22136 2.75386 8.04096 2.78805 7.86774 2.75293C7.0281 2.58165 6.15617 2.66331 5.36285 2.9873C4.56951 3.31133 3.89037 3.86407 3.41071 4.57422C2.93111 5.28433 2.67286 6.12065 2.66852 6.97754C2.66423 7.83441 2.91388 8.67377 3.38629 9.38867C3.85865 10.1033 4.53214 10.6621 5.32184 10.9941C6.11187 11.3262 6.9834 11.4167 7.82477 11.2539C8.66603 11.0911 9.44027 10.6818 10.0494 10.0791C10.6584 9.47639 11.075 8.70664 11.2466 7.86719C11.2641 7.78143 11.2983 7.69952 11.3472 7.62695C11.3961 7.55453 11.459 7.49261 11.5318 7.44434C11.6048 7.39599 11.6871 7.36244 11.773 7.3457C11.8588 7.32903 11.9471 7.32928 12.0328 7.34668C12.1186 7.3641 12.2004 7.39834 12.273 7.44727C12.3455 7.49614 12.4073 7.55899 12.4556 7.63184C12.5039 7.70468 12.5375 7.78632 12.5543 7.87207C12.571 7.958 12.5707 8.04702 12.5533 8.13281C12.3916 8.92806 12.0609 9.67942 11.5826 10.335L11.4507 10.5078L13.8853 12.9424C14.0061 13.062 14.0768 13.2236 14.0826 13.3936C14.0883 13.5635 14.029 13.7298 13.9166 13.8574C13.8042 13.9848 13.6472 14.0643 13.4781 14.0801C13.3087 14.0957 13.1394 14.0462 13.0054 13.9414L12.9429 13.8857L10.5084 11.4502C9.79866 12.0095 8.96482 12.3917 8.0777 12.5635C7.19082 12.7352 6.27572 12.6922 5.40875 12.4385C4.54156 12.1846 3.74771 11.7266 3.09332 11.1035C2.43897 10.4804 1.94306 9.71012 1.64703 8.85645C1.35104 8.00279 1.26303 7.09067 1.39118 6.19629C1.51936 5.30197 1.8596 4.45099 2.38336 3.71484C2.90725 2.97865 3.59986 2.37809 4.40289 1.96387C5.20597 1.54965 6.09695 1.33308 7.00055 1.33301ZM12.6666 0.666992C12.7911 0.666992 12.9134 0.701731 13.0191 0.767578C13.1249 0.833559 13.2103 0.928074 13.2652 1.04004L13.2974 1.11816L13.3843 1.37012C13.4758 1.63817 13.6235 1.88399 13.817 2.09082C14.0104 2.29749 14.2452 2.46127 14.5064 2.57031L14.6304 2.61621L14.8824 2.70313C15.007 2.74573 15.1168 2.82408 15.1968 2.92871C15.2768 3.03338 15.3242 3.15955 15.3326 3.29102C15.341 3.4226 15.3098 3.55388 15.2437 3.66797C15.1776 3.78202 15.0788 3.87352 14.9605 3.93164L14.8824 3.96387L14.6304 4.05078C14.3623 4.14225 14.1166 4.28986 13.9097 4.4834C13.703 4.67682 13.5393 4.91161 13.4302 5.17285L13.3834 5.29688L13.2974 5.54883C13.2548 5.67331 13.1763 5.78233 13.0718 5.8623C12.9671 5.94235 12.8401 5.9897 12.7086 5.99805C12.5773 6.00632 12.4464 5.97605 12.3326 5.91016C12.2186 5.84403 12.126 5.74525 12.0679 5.62695L12.0357 5.54883L11.9498 5.29688C11.8583 5.0288 11.7106 4.78302 11.5172 4.57617C11.3236 4.3693 11.0882 4.20578 10.8267 4.09668L10.7037 4.0498L10.4517 3.96387C10.327 3.92131 10.2174 3.84293 10.1373 3.73828C10.0572 3.63365 10.01 3.50743 10.0015 3.37598C9.99311 3.24453 10.0235 3.11303 10.0894 2.99902C10.1555 2.88495 10.2543 2.79251 10.3726 2.73438L10.4517 2.70313L10.7037 2.61621C10.9718 2.52474 11.2175 2.37711 11.4244 2.18359C11.6312 1.99008 11.7948 1.75454 11.9039 1.49316L11.9498 1.37012L12.0357 1.11816C12.0806 0.986579 12.1658 0.871943 12.2789 0.791016C12.3919 0.710132 12.5276 0.667097 12.6666 0.666992ZM12.6666 2.79688C12.5088 2.99532 12.3289 3.17528 12.1304 3.33301C12.329 3.49028 12.5086 3.67057 12.6666 3.86914C12.8239 3.67047 13.004 3.49034 13.2027 3.33301C13.0043 3.17532 12.8242 2.99524 12.6666 2.79688Z" />
</svg>