<svg xmlns="http://www.w3.org/2000/svg" width="16" height="16" viewBox="0 0 16 16">
    <path
        d="M8.00046 2.89207C9.38173 1.76899 11.023 1.77337 12.3296 2.53465C13.726 3.34872 14.7088 5.00134 14.6655 6.92918C14.6113 9.33563 12.7387 11.4581 9.54636 13.354C9.07314 13.6352 8.57428 14.0003 8.00046 14.0005C7.43728 14.0005 6.91683 13.6293 6.45359 13.354C3.2624 11.4587 1.38861 9.33505 1.33445 6.92918C1.29112 5.00138 2.27395 3.34941 3.67038 2.53465C4.97705 1.77398 6.61913 1.76874 8.00046 2.89207ZM11.6577 3.68699C10.7284 3.14578 9.56725 3.16486 8.56199 4.18211C8.48837 4.25625 8.40063 4.31481 8.30417 4.35496C8.20787 4.39504 8.10477 4.41643 8.00046 4.41649C7.89599 4.41649 7.79223 4.39511 7.69578 4.35496C7.59933 4.31481 7.51157 4.25624 7.43796 4.18211C6.43268 3.16489 5.27155 3.14574 4.34226 3.68699C3.37966 4.24829 2.63587 5.43868 2.66843 6.89988C2.70576 8.57385 4.02773 10.3632 7.13425 12.2085C7.40625 12.3705 7.69113 12.5776 8.00046 12.6636C8.30965 12.5775 8.59381 12.3704 8.8657 12.2085C11.9721 10.3633 13.295 8.57509 13.3325 6.89988C13.3658 5.43988 12.6204 4.24833 11.6577 3.68699Z" />
    <path
        d="M8.0004 2.89195C9.38167 1.76887 11.0229 1.77325 12.3295 2.53453C13.726 3.3486 14.7088 5.00122 14.6654 6.92906C14.6113 9.33551 12.7386 11.458 9.5463 13.3539C9.07308 13.6351 8.57422 14.0002 8.0004 14.0003C7.43722 14.0003 6.91677 13.6292 6.45353 13.3539C3.26234 11.4586 1.38855 9.33493 1.33439 6.92906C1.29106 5.00126 2.27389 3.34928 3.67032 2.53453C4.97699 1.77386 6.61907 1.76862 8.0004 2.89195Z"
        fill="currentColor" />
</svg>