<svg xmlns="http://www.w3.org/2000/svg" width="16" height="16" viewBox="0 0 16 16">
    <path
        d="M6.99906 1.33301C7.3857 1.33301 7.76589 1.37163 8.13187 1.44629C8.30499 1.48144 8.45707 1.58425 8.55472 1.73145C8.65233 1.87879 8.68749 2.05921 8.65238 2.23242C8.61719 2.4057 8.51462 2.55861 8.36722 2.65625C8.21987 2.75374 8.0394 2.78809 7.86624 2.75293C7.02685 2.58177 6.15545 2.66348 5.36234 2.9873C4.56899 3.31133 3.88888 3.86407 3.40921 4.57422C2.92973 5.28428 2.67136 6.12075 2.66703 6.97754C2.66274 7.83441 2.91239 8.67377 3.3848 9.38867C3.85724 10.1035 4.53138 10.6621 5.32132 10.9941C6.11126 11.3261 6.982 11.4166 7.82328 11.2539C8.66464 11.0911 9.43872 10.6819 10.0479 10.0791C10.657 9.47635 11.0745 8.70677 11.2461 7.86719C11.2636 7.78146 11.2978 7.6995 11.3467 7.62695C11.3956 7.55456 11.4585 7.49258 11.5313 7.44434C11.6042 7.39607 11.6857 7.36245 11.7715 7.3457C11.8575 7.32897 11.9465 7.32926 12.0323 7.34668C12.1179 7.36411 12.1991 7.39846 12.2715 7.44727C12.3441 7.49619 12.4068 7.55885 12.4551 7.63184C12.5034 7.70469 12.537 7.78632 12.5537 7.87207C12.5705 7.958 12.5702 8.04702 12.5528 8.13281C12.3911 8.9281 12.0595 9.67939 11.5811 10.335L11.4502 10.5078L13.8848 12.9424C14.0056 13.062 14.0763 13.2236 14.0821 13.3936C14.0878 13.5635 14.0275 13.7298 13.9151 13.8574C13.8027 13.9848 13.6458 14.0644 13.4766 14.0801C13.3074 14.0957 13.1388 14.046 13.0049 13.9414L12.9414 13.8857L10.5069 11.4502C9.79717 12.0095 8.9643 12.3917 8.07718 12.5635C7.19008 12.7353 6.27445 12.6924 5.40726 12.4385C4.54015 12.1846 3.74617 11.7266 3.09183 11.1035C2.43756 10.4804 1.94152 9.71008 1.64554 8.85645C1.34955 8.00277 1.2625 7.09069 1.39066 6.19629C1.51885 5.30189 1.859 4.45103 2.38285 3.71484C2.90675 2.97862 3.59931 2.37809 4.40238 1.96387C5.20534 1.54975 6.09559 1.33311 6.99906 1.33301ZM12.666 0.666992C12.7907 0.667027 12.9128 0.70164 13.0186 0.767578C13.1244 0.833574 13.2098 0.928041 13.2647 1.04004L13.2969 1.11816L13.3828 1.37012C13.4743 1.63824 13.6219 1.88395 13.8155 2.09082C14.009 2.29768 14.2445 2.46122 14.5059 2.57031L14.6289 2.61621L14.8809 2.70312C15.0057 2.7457 15.1152 2.82398 15.1953 2.92871C15.2754 3.03343 15.3227 3.15945 15.3311 3.29102C15.3395 3.42256 15.3093 3.5539 15.2432 3.66797C15.1771 3.78198 15.0782 3.8735 14.96 3.93164L14.8809 3.96387L14.6289 4.05078C14.3609 4.14226 14.115 4.28992 13.9082 4.4834C13.7016 4.67682 13.5378 4.91165 13.4287 5.17285L13.3828 5.29688L13.2969 5.54883C13.2543 5.6735 13.175 5.78228 13.0703 5.8623C12.9656 5.94232 12.8396 5.98967 12.708 5.99805C12.5765 6.00639 12.4451 5.97626 12.3311 5.91016C12.2171 5.84406 12.1255 5.74518 12.0674 5.62695L12.0352 5.54883L11.9483 5.29688C11.8568 5.02875 11.7092 4.78305 11.5157 4.57617C11.3222 4.36945 11.0875 4.20575 10.8262 4.09668L10.7022 4.0498L10.4502 3.96387C10.3256 3.92127 10.2158 3.84293 10.1358 3.73828C10.0558 3.63366 10.0085 3.5074 10 3.37598C9.99162 3.24446 10.0229 3.11307 10.0889 2.99902C10.155 2.88494 10.2538 2.79251 10.3721 2.73438L10.4502 2.70312L10.7022 2.61621C10.9702 2.52476 11.216 2.37707 11.4229 2.18359C11.6298 1.99005 11.7933 1.75461 11.9024 1.49316L11.9493 1.37012L12.0352 1.11816C12.0801 0.986555 12.1653 0.871946 12.2784 0.791016C12.3914 0.710187 12.5271 0.667048 12.666 0.666992ZM12.666 2.79688C12.5084 2.99525 12.3283 3.17531 12.1299 3.33301C12.3286 3.49033 12.5081 3.67048 12.666 3.86914C12.8233 3.67056 13.0036 3.49029 13.2022 3.33301C13.0037 3.17528 12.8238 2.99532 12.666 2.79688Z" />
</svg>