<svg xmlns="http://www.w3.org/2000/svg" width="16" height="16" viewBox="0 0 16 16">
    <path
        d="M4.69238 2.31002C4.84456 2.30113 4.99671 2.32786 5.13672 2.38814C5.84472 2.69081 7.43198 3.40973 9.44531 4.57173C11.4592 5.73436 12.8759 6.74975 13.4912 7.21041C14.0165 7.60442 14.0172 8.3854 13.4912 8.78072C12.8819 9.23873 11.4831 10.2412 9.44531 11.4184C7.40544 12.5957 5.83714 13.3062 5.13574 13.6049C4.53183 13.8629 3.85618 13.4719 3.77734 12.8208C3.68534 12.0594 3.5127 10.3302 3.5127 7.99556C3.51271 5.66236 3.68468 3.93429 3.77734 3.17232C3.79524 3.02097 3.8478 2.87577 3.93164 2.74849C4.01546 2.62124 4.12781 2.51511 4.25977 2.43892C4.39179 2.36275 4.54022 2.31892 4.69238 2.31002Z" />
</svg>