<svg xmlns="http://www.w3.org/2000/svg" width="16" height="16" viewBox="0 0 16 16">
    <path
        d="M6.99918 1.33301C8.06316 1.33294 9.10625 1.63252 10.008 2.19727C10.9095 2.76193 11.6335 3.56935 12.0978 4.52637C12.5622 5.48363 12.7476 6.5526 12.633 7.61035C12.5184 8.66801 12.1089 9.67228 11.4504 10.5078L13.8849 12.9424C14.0063 13.068 14.0728 13.2365 14.0714 13.4111C14.0699 13.5859 13.9997 13.7533 13.8761 13.877C13.7526 14.0004 13.5859 14.0707 13.4113 14.0723C13.2365 14.0738 13.0673 14.0072 12.9416 13.8857L10.507 11.4502C9.79729 12.0095 8.96442 12.3917 8.0773 12.5635C7.1902 12.7353 6.27457 12.6924 5.40738 12.4385C4.54027 12.1846 3.74629 11.7266 3.09195 11.1035C2.43768 10.4804 1.94164 9.71008 1.64566 8.85645C1.34967 8.00277 1.26262 7.09069 1.39078 6.19629C1.51897 5.30189 1.85912 4.45103 2.38297 3.71484C2.90687 2.97862 3.59943 2.37809 4.4025 1.96387C5.20547 1.54975 6.09571 1.33311 6.99918 1.33301ZM6.99918 2.66699C5.84996 2.66703 4.74735 3.12292 3.93473 3.93555C3.12211 4.7482 2.66617 5.85076 2.66617 7C2.66617 8.14924 3.12211 9.2518 3.93473 10.0645C4.74735 10.8771 5.84996 11.333 6.99918 11.333C8.14842 11.333 9.25098 10.8771 10.0636 10.0645C10.8763 9.2518 11.3322 8.14927 11.3322 7C11.3322 5.85073 10.8763 4.7482 10.0636 3.93555C9.25098 3.12293 8.14842 2.66699 6.99918 2.66699Z" />
</svg>