<svg xmlns="http://www.w3.org/2000/svg" width="16" height="16" viewBox="0 0 16 16">
    <path
        d="M13.1025 2.03435C13.3419 1.95454 13.6065 2.01618 13.7851 2.19451C13.9636 2.37302 14.026 2.63763 13.9462 2.87712L10.1747 14.1906C10.0925 14.4375 9.87478 14.6142 9.61615 14.6427C9.35745 14.6712 9.10562 14.5465 8.97162 14.3234L6.22748 9.75115L1.65717 7.00896C1.43398 6.87501 1.30848 6.62318 1.33685 6.36443C1.36537 6.10585 1.54222 5.8872 1.789 5.80486L13.1025 2.03435ZM7.55365 9.36833L9.3681 12.3937L11.788 5.13396L7.55365 9.36833ZM3.5849 6.6115L6.61029 8.42595L10.8456 4.1906L3.5849 6.6115Z" />
</svg>