<svg xmlns="http://www.w3.org/2000/svg" width="135" height="48" viewBox="0 0 135 48" fill="none">
    <path
        d="M34.1579 32.6723L40.324 38.8169L45.1152 34.0444L38.8187 27.7719L38.803 27.7908C35.4614 24.6718 30.2213 24.6908 26.9636 27.9318L26.944 27.9533L26.9413 27.9507C25.9885 28.8783 24.6935 29.4397 23.2629 29.4397C20.3591 29.4397 18.0058 27.0864 18.0058 24.1992C18.0058 21.3061 20.3591 18.9561 23.2629 18.9561C24.7335 18.9561 26.0789 19.4692 27.0344 20.4373L27.0744 20.4745C30.4107 23.5079 35.5813 23.4309 38.8148 20.2114C42.0456 16.9886 42.2271 11.7749 39.1792 8.4516C39.1792 8.4516 39.1418 8.40917 39.1313 8.39807C30.4743 -0.225774 16.3596 -0.140259 7.59637 8.58607C-1.16552 17.3124 -1.2494 31.3778 7.40174 39.9951C15.6872 48.2534 28.9945 48.5191 37.8049 40.8568L33.3152 36.3794C33.3152 36.3794 33.1042 36.1085 32.7889 36.382C30.1597 38.4161 26.8535 39.6387 23.2623 39.6387C14.7048 39.6387 7.76217 32.7258 7.76217 24.1986C7.76217 15.6609 14.7048 8.75057 23.2623 8.75057C27.5652 8.75057 31.4154 10.3407 34.2346 13.2175L34.2838 13.2841C34.7124 13.9617 34.6311 14.8632 34.042 15.4513C33.3519 16.1348 32.247 16.1374 31.5582 15.4539C31.5392 15.4383 31.513 15.4115 31.513 15.4115C26.7939 11.019 19.3571 11.141 14.7579 15.7249C10.0572 20.402 10.0572 27.9873 14.7579 32.6697C19.4266 37.3227 26.9833 37.3468 31.684 32.7519C31.6893 32.7519 31.6893 32.7519 31.6893 32.7519C31.6998 32.7389 31.7279 32.699 31.7279 32.6964C32.3951 32.0371 33.4692 32.0554 34.1579 32.6723Z"
        fill="#FF6E00" />
    <path
        d="M55.4106 31.4668C55.3608 31.5438 55.3156 31.6 55.2612 31.6372C55.2107 31.6744 55.1452 31.6933 55.0626 31.6933C54.9892 31.6933 54.9132 31.6718 54.828 31.6267C54.7441 31.5817 54.6517 31.5308 54.5436 31.4753C54.4381 31.4165 54.3208 31.3637 54.1831 31.3212C54.0494 31.2762 53.8961 31.252 53.7211 31.252C53.4223 31.252 53.1995 31.316 53.054 31.4433C52.9046 31.5706 52.8351 31.741 52.8351 31.959C52.8351 32.0974 52.8764 32.209 52.9675 32.3017C53.054 32.3918 53.1687 32.4695 53.3115 32.5354C53.457 32.5994 53.6202 32.6627 53.8043 32.7162C53.9872 32.7717 54.1753 32.8304 54.3699 32.897C54.5606 32.9688 54.7474 33.0459 54.9348 33.1386C55.1163 33.2293 55.2808 33.3461 55.4217 33.4845C55.5659 33.6255 55.6806 33.7979 55.7717 34.0002C55.8582 34.2026 55.9054 34.4467 55.9054 34.7313C55.9054 35.0479 55.8464 35.3456 55.7382 35.6224C55.6275 35.8959 55.4663 36.1381 55.2566 36.343C55.0482 36.548 54.7919 36.7099 54.4839 36.8268C54.1759 36.9436 53.8273 37.0024 53.4406 37.0024C53.2257 37.0024 53.0055 36.9808 52.7866 36.9358C52.5625 36.8933 52.3462 36.832 52.1404 36.7497C51.9333 36.6701 51.7374 36.5767 51.5533 36.4677C51.3717 36.3561 51.2144 36.2334 51.0781 36.0983L51.5493 35.3593C51.5893 35.3038 51.6358 35.2581 51.6987 35.2235C51.7603 35.1863 51.8252 35.168 51.8999 35.168C51.9949 35.168 52.0893 35.2 52.1857 35.2581C52.2807 35.3169 52.3901 35.3835 52.5114 35.4579C52.6313 35.5271 52.7702 35.5963 52.9301 35.6544C53.0861 35.7131 53.2702 35.7444 53.4852 35.7444C53.7762 35.7444 54.0003 35.6779 54.1602 35.5532C54.3201 35.4252 54.402 35.2235 54.402 34.9494C54.402 34.7875 54.3581 34.6569 54.2696 34.5557C54.1818 34.4546 54.0652 34.3749 53.9223 34.3083C53.7768 34.2418 53.6169 34.1863 53.4341 34.1327C53.2499 34.0825 53.0645 34.0263 52.8692 33.9676C52.6785 33.9062 52.4917 33.8292 52.3089 33.7417C52.1273 33.6516 51.9635 33.5341 51.8219 33.3879C51.6778 33.2417 51.5605 33.0583 51.4766 32.8429C51.3855 32.6248 51.3416 32.3565 51.3416 32.0373C51.3416 31.7795 51.3933 31.5295 51.4962 31.2821C51.6017 31.0399 51.7538 30.8219 51.9543 30.628C52.1588 30.4393 52.4065 30.2846 52.6988 30.171C52.9898 30.0594 53.3259 29.998 53.7015 29.998C53.9138 29.998 54.1176 30.017 54.3194 30.0483C54.5213 30.0803 54.7081 30.1306 54.8909 30.1945C55.0659 30.2585 55.2336 30.3355 55.3903 30.423C55.5489 30.5137 55.6825 30.6143 55.811 30.7285L55.4106 31.4668Z"
        fill="#FF6E00" />
    <path
        d="M62.8513 36.9274H61.2417V34.0323H58.4493V36.9274H56.8438V30.0752H58.4493V32.9389H61.2417V30.0752H62.8513V36.9274Z"
        fill="#FF6E00" />
    <path
        d="M70.9336 33.5005C70.9336 33.9953 70.851 34.4549 70.6773 34.8831C70.5063 35.3087 70.2651 35.6782 69.9512 35.9941C69.6412 36.3107 69.2664 36.5555 68.8273 36.7331C68.3882 36.9113 67.9013 37.0014 67.3659 37.0014C66.8305 37.0014 66.3423 36.9106 65.9019 36.7331C65.4615 36.5549 65.0853 36.3101 64.7714 35.9941C64.4575 35.6775 64.2163 35.3081 64.0453 34.8831C63.8716 34.4549 63.7891 33.9953 63.7891 33.5005C63.7891 33.0031 63.8716 32.5436 64.0453 32.1179C64.2163 31.6897 64.4575 31.3202 64.7714 31.0063C65.0853 30.6929 65.4615 30.4481 65.9019 30.2699C66.3423 30.0891 66.8305 29.999 67.3659 29.999C67.9013 29.999 68.3882 30.0924 68.8273 30.2699C69.2664 30.4507 69.6412 30.6981 69.9512 31.0115C70.2651 31.3255 70.5063 31.6949 70.6773 32.1232C70.851 32.5488 70.9336 33.0057 70.9336 33.5005ZM69.3031 33.5005C69.3031 33.163 69.2579 32.8543 69.1694 32.5834C69.0829 32.3151 68.9545 32.0833 68.7906 31.8973C68.6248 31.7086 68.4223 31.5624 68.1838 31.4639C67.942 31.3601 67.6713 31.3124 67.3672 31.3124C67.0566 31.3124 66.7827 31.3601 66.5441 31.4639C66.3023 31.5624 66.0998 31.7086 65.9327 31.8973C65.7702 32.0833 65.643 32.3151 65.5565 32.5834C65.4674 32.8549 65.4254 33.163 65.4254 33.5005C65.4254 33.8406 65.4667 34.1468 65.5565 34.4177C65.643 34.6886 65.7702 34.9203 65.9327 35.1064C66.0998 35.2976 66.3023 35.4386 66.5441 35.5372C66.7833 35.6351 67.0566 35.686 67.3672 35.686C67.6713 35.686 67.9426 35.6358 68.1838 35.5372C68.423 35.4386 68.6255 35.2976 68.7906 35.1064C68.9551 34.9203 69.0829 34.6886 69.1694 34.4177C69.2572 34.1461 69.3031 33.8406 69.3031 33.5005Z"
        fill="#FF6E00" />
    <path
        d="M73.4649 34.6381V36.9274H71.8672V30.0752H74.2965C74.7769 30.0752 75.1943 30.1339 75.5443 30.2482C75.8923 30.3624 76.178 30.5191 76.4008 30.7188C76.6276 30.9205 76.7934 31.1549 76.8989 31.431C77.0096 31.7026 77.0601 31.995 77.0601 32.3136C77.0601 32.6537 77.0057 32.9703 76.8956 33.2523C76.7849 33.5395 76.6151 33.7843 76.391 33.9886C76.1643 34.191 75.8772 34.3502 75.5286 34.4645C75.1819 34.5787 74.7664 34.6375 74.2952 34.6375L73.4649 34.6381ZM73.4649 33.439H74.2965C74.7101 33.439 75.0063 33.3404 75.1911 33.1413C75.3739 32.9448 75.4676 32.6706 75.4676 32.3142C75.4676 32.1576 75.4434 32.0139 75.3929 31.886C75.3477 31.7587 75.2756 31.6464 75.1793 31.5537C75.0829 31.463 74.963 31.3912 74.8188 31.3409C74.6694 31.2907 74.4944 31.2665 74.2972 31.2665H73.4656L73.4649 33.439Z"
        fill="#FF6E00" />
    <path
        d="M113.088 21.7822C112.062 21.7822 109.156 21.7822 109.156 21.7822V12.4102C109.156 11.4983 108.708 11.0381 107.904 11.0381H106.594V22.5426C106.594 23.5368 106.594 24.061 106.594 24.061H114.408C114.408 24.061 114.408 23.6034 114.408 23.0028C114.408 22.3409 114.117 21.7822 113.088 21.7822Z"
        fill="#FF6E00" />
    <path
        d="M103.157 21.572V12.2902C103.157 11.3756 102.752 11.0244 101.902 11.0244H100.594V11.4631V22.542C100.594 23.5362 101.129 24.0604 102.136 24.0604H103.156V23.6191C103.156 23.6191 103.165 22.9807 103.157 21.572Z"
        fill="#FF6E00" />
    <path
        d="M95.4647 12.2957L92.5393 20.3177L89.7809 12.2924C89.4218 11.3329 88.9762 11.0241 87.9512 11.0241H86.75V11.481C86.75 11.481 90.7777 22.4803 90.9927 23.0522C91.2024 23.6266 91.6696 24.0627 92.4023 24.0627C92.7988 24.0627 93.7621 24.0627 93.7621 24.0627L98.3587 11.4517V11.0234H97.2938C96.2655 11.0247 95.8225 11.3329 95.4647 12.2957Z"
        fill="#FF6E00" />
    <path
        d="M83.5521 18.351C84.4689 17.8699 85.4407 16.7713 85.4407 14.9611C85.4407 12.5733 83.8004 10.9727 81.3632 10.9727H76.709V11.4139C76.709 11.4139 76.6782 12.0282 76.709 13.3892V24.0112H79.2714V19.148H80.4739C81.0316 19.148 81.1024 19.1826 81.3056 19.5789V19.5763L82.9498 22.8624C83.421 23.8435 83.9721 24.0139 85.024 24.0139H86.1275V23.4818L83.5521 18.351ZM79.272 16.8379V13.2835H81.1522C82.2335 13.2835 82.8259 13.9056 82.8259 15.0329C82.8259 16.1818 82.2093 16.8385 81.1365 16.8385L79.272 16.8379Z"
        fill="#FF6E00" />
    <path
        d="M60.3079 20.3013C60.2961 20.3169 58.9638 21.8222 56.7455 21.8222C54.4924 21.8222 52.7243 19.8972 52.7243 17.4375C52.7243 15.0046 54.3915 13.2447 56.6924 13.2447C58.6754 13.2447 59.5057 14.8532 59.5057 14.8532C59.821 14.5477 61.3073 13.1064 61.3073 13.1064C61.3073 13.1064 59.9769 10.8145 56.6563 10.8145C52.915 10.8145 50.0938 13.6645 50.0938 17.4375C50.0938 21.3353 52.9432 24.2708 56.7258 24.2708C59.9717 24.2708 61.7962 22.1728 61.8735 22.0827L62.0871 21.8327L60.6401 19.9129L60.3079 20.3013Z"
        fill="#FF6E00" />
    <path
        d="M132.536 21.7822C131.755 21.7822 129.116 21.7822 127.915 21.7822V18.645H132.225V16.3341H127.915V13.3059H133.231V11.0166H125.359V24.0611H127.084H127.915H133.857C133.857 24.0611 133.857 23.6035 133.857 23.0029C133.857 22.341 133.56 21.7822 132.536 21.7822Z"
        fill="#FF6E00" />
    <path
        d="M74.7161 23.7235C74.5254 23.2607 74.1662 22.3729 73.9061 21.634C73.9061 21.634 70.5645 12.623 70.3535 12.0512C70.1425 11.4846 69.6824 11.0459 68.9524 11.0459C68.5519 11.0459 67.5873 11.0459 67.5873 11.0459C67.5873 11.0459 63.6238 21.7293 63.6238 21.7319C63.4652 22.1359 63.1061 23.1569 62.9141 23.6941V24.0479H64.1887C65.2084 24.0479 65.6514 23.7392 66.0119 22.7796L66.831 20.5458H70.7467L71.5619 22.7822C71.9171 23.7392 72.3667 24.0479 73.3838 24.0479H74.7174V23.7235H74.7161ZM67.5375 18.2754L68.6824 15.1062C68.7197 14.9972 68.7492 14.8881 68.7839 14.7687C68.82 14.8881 68.8587 15.005 68.8908 15.1173L70.0304 18.2761L67.5375 18.2754Z"
        fill="#FF6E00" />
    <path
        d="M122.405 21.7822C121.374 21.7822 118.47 21.7822 118.47 21.7822V12.4102C118.47 11.4983 118.02 11.0381 117.217 11.0381H115.906V22.5426C115.906 23.5368 115.906 24.061 115.906 24.061H123.722C123.722 24.061 123.722 23.6034 123.722 23.0028C123.722 22.3409 123.431 21.7822 122.405 21.7822Z"
        fill="#FF6E00" />
</svg>