<svg width="204" height="56" viewBox="0 0 204 56" fill="none" xmlns="http://www.w3.org/2000/svg">
<path d="M34.1579 36.6723L40.324 42.8169L45.1152 38.0444L38.8187 31.7719L38.803 31.7908C35.4614 28.6718 30.2213 28.6908 26.9636 31.9318L26.944 31.9533L26.9413 31.9507C25.9885 32.8783 24.6935 33.4397 23.2629 33.4397C20.3591 33.4397 18.0058 31.0864 18.0058 28.1992C18.0058 25.3061 20.3591 22.9561 23.2629 22.9561C24.7335 22.9561 26.0789 23.4692 27.0344 24.4373L27.0744 24.4745C30.4107 27.5079 35.5813 27.4309 38.8148 24.2114C42.0456 20.9886 42.2271 15.7749 39.1792 12.4516C39.1792 12.4516 39.1418 12.4092 39.1313 12.3981C30.4743 3.77423 16.3596 3.85974 7.59637 12.5861C-1.16552 21.3124 -1.2494 35.3778 7.40174 43.9951C15.6872 52.2534 28.9945 52.5191 37.8049 44.8568L33.3152 40.3794C33.3152 40.3794 33.1042 40.1085 32.7889 40.382C30.1597 42.4161 26.8535 43.6387 23.2623 43.6387C14.7048 43.6387 7.76217 36.7258 7.76217 28.1986C7.76217 19.6609 14.7048 12.7506 23.2623 12.7506C27.5652 12.7506 31.4154 14.3407 34.2346 17.2175L34.2838 17.2841C34.7124 17.9617 34.6311 18.8632 34.042 19.4513C33.3519 20.1348 32.247 20.1374 31.5582 19.4539C31.5392 19.4383 31.513 19.4115 31.513 19.4115C26.7939 15.019 19.3571 15.141 14.7579 19.7249C10.0572 24.402 10.0572 31.9873 14.7579 36.6697C19.4266 41.3227 26.9833 41.3468 31.684 36.7519C31.6893 36.7519 31.6893 36.7519 31.6893 36.7519C31.6998 36.7389 31.7279 36.699 31.7279 36.6964C32.3951 36.0371 33.4692 36.0554 34.1579 36.6723Z" fill="#FF6E00"/>
<path d="M55.4106 35.4668C55.3608 35.5438 55.3156 35.6 55.2612 35.6372C55.2107 35.6744 55.1452 35.6933 55.0626 35.6933C54.9892 35.6933 54.9132 35.6718 54.828 35.6267C54.7441 35.5817 54.6517 35.5308 54.5436 35.4753C54.4381 35.4165 54.3208 35.3637 54.1831 35.3212C54.0494 35.2762 53.8961 35.252 53.7211 35.252C53.4223 35.252 53.1995 35.316 53.054 35.4433C52.9046 35.5706 52.8351 35.741 52.8351 35.959C52.8351 36.0974 52.8764 36.209 52.9675 36.3017C53.054 36.3918 53.1687 36.4695 53.3115 36.5354C53.457 36.5994 53.6202 36.6627 53.8043 36.7162C53.9872 36.7717 54.1753 36.8304 54.3699 36.897C54.5606 36.9688 54.7474 37.0459 54.9348 37.1386C55.1163 37.2293 55.2808 37.3461 55.4217 37.4845C55.5659 37.6255 55.6806 37.7979 55.7717 38.0002C55.8582 38.2026 55.9054 38.4467 55.9054 38.7313C55.9054 39.0479 55.8464 39.3456 55.7382 39.6224C55.6275 39.8959 55.4663 40.1381 55.2566 40.343C55.0482 40.548 54.7919 40.7099 54.4839 40.8268C54.1759 40.9436 53.8273 41.0024 53.4406 41.0024C53.2257 41.0024 53.0055 40.9808 52.7866 40.9358C52.5625 40.8933 52.3462 40.832 52.1404 40.7497C51.9333 40.6701 51.7374 40.5767 51.5533 40.4677C51.3717 40.3561 51.2144 40.2334 51.0781 40.0983L51.5493 39.3593C51.5893 39.3038 51.6358 39.2581 51.6987 39.2235C51.7603 39.1863 51.8252 39.168 51.8999 39.168C51.9949 39.168 52.0893 39.2 52.1857 39.2581C52.2807 39.3169 52.3901 39.3835 52.5114 39.4579C52.6313 39.5271 52.7702 39.5963 52.9301 39.6544C53.0861 39.7131 53.2702 39.7444 53.4852 39.7444C53.7762 39.7444 54.0003 39.6779 54.1602 39.5532C54.3201 39.4252 54.402 39.2235 54.402 38.9494C54.402 38.7875 54.3581 38.6569 54.2696 38.5557C54.1818 38.4546 54.0652 38.3749 53.9223 38.3083C53.7768 38.2418 53.6169 38.1863 53.4341 38.1327C53.2499 38.0825 53.0645 38.0263 52.8692 37.9676C52.6785 37.9062 52.4917 37.8292 52.3089 37.7417C52.1273 37.6516 51.9635 37.5341 51.8219 37.3879C51.6778 37.2417 51.5605 37.0583 51.4766 36.8429C51.3855 36.6248 51.3416 36.3565 51.3416 36.0373C51.3416 35.7795 51.3933 35.5295 51.4962 35.2821C51.6017 35.0399 51.7538 34.8219 51.9543 34.628C52.1588 34.4393 52.4065 34.2846 52.6988 34.171C52.9898 34.0594 53.3259 33.998 53.7015 33.998C53.9138 33.998 54.1176 34.017 54.3194 34.0483C54.5213 34.0803 54.7081 34.1306 54.8909 34.1945C55.0659 34.2585 55.2336 34.3355 55.3903 34.423C55.5489 34.5137 55.6825 34.6143 55.811 34.7285L55.4106 35.4668Z" fill="#FF6E00"/>
<path d="M62.8513 40.9274H61.2417V38.0323H58.4493V40.9274H56.8438V34.0752H58.4493V36.9389H61.2417V34.0752H62.8513V40.9274Z" fill="#FF6E00"/>
<path d="M70.9336 37.5005C70.9336 37.9953 70.851 38.4549 70.6773 38.8831C70.5063 39.3087 70.2651 39.6782 69.9512 39.9941C69.6412 40.3107 69.2664 40.5555 68.8273 40.7331C68.3882 40.9113 67.9013 41.0014 67.3659 41.0014C66.8305 41.0014 66.3423 40.9106 65.9019 40.7331C65.4615 40.5549 65.0853 40.3101 64.7714 39.9941C64.4575 39.6775 64.2163 39.3081 64.0453 38.8831C63.8716 38.4549 63.7891 37.9953 63.7891 37.5005C63.7891 37.0031 63.8716 36.5436 64.0453 36.1179C64.2163 35.6897 64.4575 35.3202 64.7714 35.0063C65.0853 34.6929 65.4615 34.4481 65.9019 34.2699C66.3423 34.0891 66.8305 33.999 67.3659 33.999C67.9013 33.999 68.3882 34.0924 68.8273 34.2699C69.2664 34.4507 69.6412 34.6981 69.9512 35.0115C70.2651 35.3255 70.5063 35.6949 70.6773 36.1232C70.851 36.5488 70.9336 37.0057 70.9336 37.5005ZM69.3031 37.5005C69.3031 37.163 69.2579 36.8543 69.1694 36.5834C69.0829 36.3151 68.9545 36.0833 68.7906 35.8973C68.6248 35.7086 68.4223 35.5624 68.1838 35.4639C67.942 35.3601 67.6713 35.3124 67.3672 35.3124C67.0566 35.3124 66.7827 35.3601 66.5441 35.4639C66.3023 35.5624 66.0998 35.7086 65.9327 35.8973C65.7702 36.0833 65.643 36.3151 65.5565 36.5834C65.4674 36.8549 65.4254 37.163 65.4254 37.5005C65.4254 37.8406 65.4667 38.1468 65.5565 38.4177C65.643 38.6886 65.7702 38.9203 65.9327 39.1064C66.0998 39.2976 66.3023 39.4386 66.5441 39.5372C66.7833 39.6351 67.0566 39.686 67.3672 39.686C67.6713 39.686 67.9426 39.6358 68.1838 39.5372C68.423 39.4386 68.6255 39.2976 68.7906 39.1064C68.9551 38.9203 69.0829 38.6886 69.1694 38.4177C69.2572 38.1461 69.3031 37.8406 69.3031 37.5005Z" fill="#FF6E00"/>
<path d="M73.4649 38.6381V40.9274H71.8672V34.0752H74.2965C74.7769 34.0752 75.1943 34.1339 75.5443 34.2482C75.8923 34.3624 76.178 34.5191 76.4008 34.7188C76.6276 34.9205 76.7934 35.1549 76.8989 35.431C77.0096 35.7026 77.0601 35.995 77.0601 36.3136C77.0601 36.6537 77.0057 36.9703 76.8956 37.2523C76.7849 37.5395 76.6151 37.7843 76.391 37.9886C76.1643 38.191 75.8772 38.3502 75.5286 38.4645C75.1819 38.5787 74.7664 38.6375 74.2952 38.6375L73.4649 38.6381ZM73.4649 37.439H74.2965C74.7101 37.439 75.0063 37.3404 75.1911 37.1413C75.3739 36.9448 75.4676 36.6706 75.4676 36.3142C75.4676 36.1576 75.4434 36.0139 75.3929 35.886C75.3477 35.7587 75.2756 35.6464 75.1793 35.5537C75.0829 35.463 74.963 35.3912 74.8188 35.3409C74.6694 35.2907 74.4944 35.2665 74.2972 35.2665H73.4656L73.4649 37.439Z" fill="#FF6E00"/>
<path d="M113.088 25.7822C112.062 25.7822 109.156 25.7822 109.156 25.7822V16.4102C109.156 15.4983 108.708 15.0381 107.904 15.0381H106.594V26.5426C106.594 27.5368 106.594 28.061 106.594 28.061H114.408C114.408 28.061 114.408 27.6034 114.408 27.0028C114.408 26.3409 114.117 25.7822 113.088 25.7822Z" fill="#FF6E00"/>
<path d="M103.157 25.572V16.2902C103.157 15.3756 102.752 15.0244 101.902 15.0244H100.594V15.4631V26.542C100.594 27.5362 101.129 28.0604 102.136 28.0604H103.156V27.6191C103.156 27.6191 103.165 26.9807 103.157 25.572Z" fill="#FF6E00"/>
<path d="M95.4647 16.2957L92.5393 24.3177L89.7809 16.2924C89.4218 15.3329 88.9762 15.0241 87.9512 15.0241H86.75V15.481C86.75 15.481 90.7777 26.4803 90.9927 27.0522C91.2024 27.6266 91.6696 28.0627 92.4023 28.0627C92.7988 28.0627 93.7621 28.0627 93.7621 28.0627L98.3587 15.4517V15.0234H97.2938C96.2655 15.0247 95.8225 15.3329 95.4647 16.2957Z" fill="#FF6E00"/>
<path d="M83.5521 22.351C84.4689 21.8699 85.4407 20.7713 85.4407 18.9611C85.4407 16.5733 83.8004 14.9727 81.3632 14.9727H76.709V15.4139C76.709 15.4139 76.6782 16.0282 76.709 17.3892V28.0112H79.2714V23.148H80.4739C81.0316 23.148 81.1024 23.1826 81.3056 23.5789V23.5763L82.9498 26.8624C83.421 27.8435 83.9721 28.0139 85.024 28.0139H86.1275V27.4818L83.5521 22.351ZM79.272 20.8379V17.2835H81.1522C82.2335 17.2835 82.8259 17.9056 82.8259 19.0329C82.8259 20.1818 82.2093 20.8385 81.1365 20.8385L79.272 20.8379Z" fill="#FF6E00"/>
<path d="M60.3079 24.3013C60.2961 24.3169 58.9638 25.8222 56.7455 25.8222C54.4924 25.8222 52.7243 23.8972 52.7243 21.4375C52.7243 19.0046 54.3915 17.2447 56.6924 17.2447C58.6754 17.2447 59.5057 18.8532 59.5057 18.8532C59.821 18.5477 61.3073 17.1064 61.3073 17.1064C61.3073 17.1064 59.9769 14.8145 56.6563 14.8145C52.915 14.8145 50.0938 17.6645 50.0938 21.4375C50.0938 25.3353 52.9432 28.2708 56.7258 28.2708C59.9717 28.2708 61.7962 26.1728 61.8735 26.0827L62.0871 25.8327L60.6401 23.9129L60.3079 24.3013Z" fill="#FF6E00"/>
<path d="M132.536 25.7822C131.755 25.7822 129.116 25.7822 127.915 25.7822V22.645H132.225V20.3341H127.915V17.3059H133.231V15.0166H125.359V28.0611H127.084H127.915H133.857C133.857 28.0611 133.857 27.6035 133.857 27.0029C133.857 26.341 133.56 25.7822 132.536 25.7822Z" fill="#FF6E00"/>
<path d="M74.7161 27.7235C74.5254 27.2607 74.1662 26.3729 73.9061 25.634C73.9061 25.634 70.5645 16.623 70.3535 16.0512C70.1425 15.4846 69.6824 15.0459 68.9524 15.0459C68.5519 15.0459 67.5873 15.0459 67.5873 15.0459C67.5873 15.0459 63.6238 25.7293 63.6238 25.7319C63.4652 26.1359 63.1061 27.1569 62.9141 27.6941V28.0479H64.1887C65.2084 28.0479 65.6514 27.7392 66.0119 26.7796L66.831 24.5458H70.7467L71.5619 26.7822C71.9171 27.7392 72.3667 28.0479 73.3838 28.0479H74.7174V27.7235H74.7161ZM67.5375 22.2754L68.6824 19.1062C68.7197 18.9972 68.7492 18.8881 68.7839 18.7687C68.82 18.8881 68.8587 19.005 68.8908 19.1173L70.0304 22.2761L67.5375 22.2754Z" fill="#FF6E00"/>
<path d="M122.405 25.7822C121.374 25.7822 118.47 25.7822 118.47 25.7822V16.4102C118.47 15.4983 118.02 15.0381 117.217 15.0381H115.906V26.5426C115.906 27.5368 115.906 28.061 115.906 28.061H123.722C123.722 28.061 123.722 27.6034 123.722 27.0028C123.722 26.3409 123.431 25.7822 122.405 25.7822Z" fill="#FF6E00"/>
</svg>
