<svg width="1350" height="712" viewBox="0 0 1350 712" fill="none" xmlns="http://www.w3.org/2000/svg">
    <path
        d="M1350 264C1350 267.59 1349.39 271.018 1348.29 274.247C1348.12 274.744 1347.94 275.236 1347.74 275.723C1346.77 278.159 1345.52 280.474 1344.03 282.651C1343.58 283.304 1343.11 283.945 1342.62 284.572C1341.97 285.41 1341.28 286.224 1340.56 287.015C1339.65 288.003 1338.7 288.953 1337.7 289.864C1337.3 290.228 1336.89 290.586 1336.48 290.938C1335.45 291.817 1334.37 292.656 1333.26 293.452C1332.59 293.93 1331.91 294.392 1331.21 294.839C1328.44 296.626 1325.47 298.16 1322.39 299.414C1321.88 299.623 1321.36 299.824 1320.84 300.018C1320.07 300.307 1319.28 300.579 1318.49 300.833L1317.16 301.271C1316.11 301.629 1315.06 302.005 1314.03 302.395C1287.91 312.271 1270 332.565 1270 356C1270 373.013 1279.44 388.373 1294.61 399.292C1295.64 400.037 1296.7 400.76 1297.79 401.463C1299.96 402.867 1302.24 404.186 1304.6 405.411C1305 405.615 1305.4 405.817 1305.79 406.016C1307.39 406.812 1309.03 407.566 1310.71 408.276C1311.25 408.504 1311.79 408.725 1312.33 408.944C1314.34 409.748 1316.39 410.492 1318.49 411.168C1320.51 411.818 1322.5 412.589 1324.44 413.472C1324.6 413.544 1324.76 413.618 1324.92 413.692C1325.47 413.95 1326.02 414.217 1326.56 414.493C1326.81 414.62 1327.05 414.748 1327.3 414.879C1328.01 415.251 1328.7 415.639 1329.39 416.042C1330.1 416.459 1330.8 416.891 1331.48 417.34C1331.76 417.52 1332.03 417.703 1332.31 417.889C1332.56 418.06 1332.81 418.233 1333.06 418.408C1333.35 418.614 1333.63 418.821 1333.92 419.032C1335.02 419.845 1336.08 420.7 1337.1 421.595C1340.96 424.996 1344.19 428.974 1346.45 433.413L1346.79 434.118C1346.91 434.354 1347.02 434.592 1347.13 434.83C1347.24 435.069 1347.34 435.309 1347.44 435.55C1347.65 436.032 1347.84 436.52 1348.02 437.012C1348.84 439.226 1349.43 441.536 1349.74 443.932C1349.81 444.464 1349.86 445 1349.9 445.541C1349.97 446.352 1350 447.172 1350 448V712H0V448C0 446.909 0.0560469 445.833 0.165039 444.772C0.183026 444.597 0.203747 444.423 0.224609 444.249C0.235658 444.157 0.245963 444.065 0.257812 443.973C0.274677 443.842 0.294024 443.711 0.3125 443.581C0.33218 443.442 0.350574 443.303 0.37207 443.165C0.387899 443.063 0.406045 442.962 0.422852 442.86C0.448994 442.702 0.475414 442.545 0.503906 442.388C0.523138 442.282 0.544159 442.176 0.564453 442.07C0.594505 441.914 0.623885 441.757 0.65625 441.602C0.677829 441.498 0.70201 441.395 0.724609 441.291C0.75699 441.143 0.787805 440.994 0.822266 440.847C0.850257 440.727 0.880804 440.608 0.910156 440.488C0.944546 440.348 0.978404 440.209 1.01465 440.069C1.06077 439.892 1.11008 439.716 1.15918 439.54C1.17785 439.473 1.19477 439.406 1.21387 439.339C1.25789 439.185 1.30528 439.032 1.35156 438.879C1.38059 438.783 1.40857 438.687 1.43848 438.591C1.49322 438.416 1.55073 438.241 1.6084 438.067C1.62627 438.013 1.64298 437.959 1.66113 437.905L1.71191 437.753C1.75686 437.622 1.80498 437.492 1.85156 437.361C1.88387 437.271 1.91515 437.18 1.94824 437.09C2.00246 436.942 2.05893 436.795 2.11523 436.648C2.15017 436.557 2.18399 436.466 2.21973 436.375C2.27675 436.23 2.33647 436.086 2.39551 435.942C2.43472 435.847 2.4726 435.751 2.5127 435.655C2.57078 435.517 2.63149 435.38 2.69141 435.243C2.74006 435.132 2.78804 435.02 2.83789 434.909C2.89171 434.789 2.94773 434.671 3.00293 434.552C3.05261 434.445 3.10155 434.337 3.15234 434.23C3.22346 434.081 3.29586 433.932 3.36914 433.784C3.40603 433.71 3.44304 433.635 3.48047 433.561C3.55132 433.42 3.6235 433.28 3.69629 433.14C3.75159 433.033 3.80688 432.927 3.86328 432.821C3.92078 432.713 3.97944 432.606 4.03809 432.499C4.10531 432.376 4.1725 432.253 4.24121 432.131C4.3028 432.021 4.36595 431.913 4.42871 431.804C4.4935 431.691 4.55799 431.579 4.62402 431.467C4.69121 431.353 4.75966 431.24 4.82812 431.127C4.89545 431.016 4.9627 430.904 5.03125 430.794C5.09491 430.691 5.1599 430.589 5.22461 430.487C5.30772 430.356 5.39076 430.225 5.47559 430.095C5.53072 430.01 5.58673 429.926 5.64258 429.842C5.72382 429.719 5.80593 429.597 5.88867 429.476C5.96024 429.37 6.03279 429.266 6.10547 429.161C6.1816 429.052 6.25762 428.942 6.33496 428.833C6.41017 428.727 6.48616 428.622 6.5625 428.517C6.64442 428.404 6.72637 428.291 6.80957 428.179C6.87826 428.086 6.94802 427.994 7.01758 427.902C7.10466 427.787 7.19185 427.672 7.28027 427.558C7.35995 427.455 7.44073 427.352 7.52148 427.25C7.59508 427.157 7.66867 427.063 7.74316 426.971C7.84282 426.847 7.94369 426.724 8.04492 426.601C8.11366 426.517 8.1825 426.434 8.25195 426.351C8.34142 426.244 8.43181 426.137 8.52246 426.031C8.60577 425.934 8.68914 425.836 8.77344 425.739C8.8721 425.626 8.97129 425.513 9.07129 425.4C9.1379 425.325 9.20527 425.251 9.27246 425.177C9.38368 425.053 9.4956 424.931 9.6084 424.809C9.69758 424.712 9.78777 424.616 9.87793 424.521C9.96026 424.433 10.0428 424.346 10.126 424.259C10.2205 424.16 10.3156 424.062 10.4111 423.964C10.5017 423.871 10.5921 423.778 10.6836 423.686C10.7761 423.592 10.8694 423.5 10.9629 423.407C11.0579 423.313 11.1531 423.219 11.249 423.126C11.3447 423.033 11.4405 422.94 11.5371 422.848C11.6355 422.754 11.7347 422.661 11.834 422.567C11.9309 422.477 12.0282 422.386 12.126 422.296C12.2293 422.201 12.3332 422.106 12.4375 422.012C12.5212 421.936 12.6051 421.86 12.6895 421.785C12.8022 421.685 12.9155 421.585 13.0293 421.485C13.1361 421.392 13.2438 421.3 13.3516 421.207C13.4446 421.127 13.5372 421.047 13.6309 420.968C13.7325 420.882 13.835 420.797 13.9375 420.712C14.0455 420.622 14.1539 420.533 14.2627 420.444C14.3678 420.359 14.4732 420.273 14.5791 420.188C14.6835 420.105 14.7883 420.021 14.8936 419.938C14.9912 419.862 15.0892 419.785 15.1875 419.709C15.5226 419.449 15.8615 419.193 16.2041 418.941C16.2865 418.881 16.3693 418.821 16.4521 418.761C16.6014 418.652 16.7508 418.544 16.9014 418.438C16.9504 418.403 16.9997 418.369 17.0488 418.334C17.2172 418.216 17.3857 418.097 17.5557 417.98C17.614 417.94 17.6729 417.901 17.7314 417.861C17.8996 417.747 18.0686 417.634 18.2383 417.521C18.3259 417.463 18.4139 417.406 18.502 417.349C18.6172 417.273 18.7327 417.198 18.8486 417.124C18.9764 417.042 19.1048 416.961 19.2334 416.88C19.3539 416.804 19.4745 416.728 19.5957 416.653C19.7065 416.585 19.8183 416.518 19.9297 416.45C20.0343 416.387 20.1381 416.322 20.2432 416.259C20.3629 416.187 20.4832 416.117 20.6035 416.046C20.746 415.962 20.8889 415.879 21.0322 415.797C21.068 415.776 21.1038 415.756 21.1396 415.735C21.3298 415.627 21.5203 415.519 21.7119 415.412C21.7982 415.364 21.8851 415.317 21.9717 415.27C22.1296 415.183 22.2874 415.096 22.4463 415.011C22.5578 414.951 22.6702 414.893 22.7822 414.834C22.8935 414.775 23.0045 414.716 23.1162 414.658C23.256 414.586 23.3967 414.515 23.5371 414.444C23.6555 414.384 23.7737 414.324 23.8926 414.265C23.9656 414.228 24.0391 414.193 24.1123 414.157C26.5006 412.983 28.9794 411.981 31.5068 411.168C33.6077 410.492 35.6615 409.748 37.665 408.944C38.2111 408.725 38.7545 408.505 39.293 408.276C43.9016 406.324 48.2263 404.038 52.209 401.463C53.2954 400.76 54.3563 400.037 55.3906 399.292C70.5585 388.373 80 373.013 80 356C80 332.565 62.0854 312.271 35.9678 302.395C34.9367 302.005 33.8939 301.628 32.8379 301.271L31.5068 300.833C30.7182 300.579 29.9342 300.307 29.1562 300.018C28.6378 299.824 28.1221 299.623 27.6094 299.414C24.5318 298.16 21.5636 296.626 18.7881 294.839C18.0943 294.392 17.4126 293.93 16.7441 293.452C15.6298 292.656 14.5529 291.817 13.5186 290.938C13.1051 290.586 12.6982 290.228 12.2988 289.864C11.2999 288.953 10.3465 288.003 9.44434 287.015C8.7225 286.224 8.03389 285.41 7.38086 284.572C6.8913 283.945 6.42151 283.304 5.97363 282.651C4.48017 280.474 3.22564 278.159 2.25781 275.723C1.87071 274.748 1.5296 273.754 1.2373 272.742C0.433531 269.959 0 267.037 0 264V0H1350V264Z"
        fill="black" />
</svg>