<svg width="36" height="36" viewBox="0 0 36 36" fill="none" xmlns="http://www.w3.org/2000/svg">
<g clip-path="url(#clip0_7001_54962)">
<path d="M18.3176 14.5778C18.3292 14.7057 18.4296 14.81 18.5393 14.81C18.649 14.81 18.7306 14.7078 18.719 14.5778C18.7166 14.5523 18.7096 14.5267 18.7026 14.5033C18.6583 14.5076 18.5883 14.5118 18.4833 14.4969C18.4226 14.4884 18.3736 14.4735 18.3363 14.4564C18.3223 14.4926 18.3152 14.5331 18.3176 14.5757M21.4214 19.39C21.6128 19.6307 22.3152 20.3912 22.4319 20.8193C22.5486 21.2475 22.5649 21.42 22.4459 21.7822C22.3292 22.1443 22.1682 22.6364 22.5486 22.745C22.929 22.8515 23.09 22.4383 23.1647 22.1166C23.237 21.795 23.6174 21.3412 23.8531 21.1942C24.0865 21.0473 24.0281 20.4465 23.6337 20.2996C23.2393 20.1526 22.6676 19.9396 22.3595 19.5242C22.0515 19.1109 21.9208 18.7893 21.5848 18.8297C21.2487 18.8702 21.2324 19.1514 21.4237 19.39M18.2802 19.2941C18.7773 19.4155 19.6128 19.7755 20.1379 20.6447C20.6653 21.5116 20.7096 21.6735 20.9873 21.5926C21.265 21.5116 21.118 21.0324 20.8543 20.4828C20.5906 19.9353 20.3876 19.4411 20.1519 19.0811C19.9185 18.719 19.5801 18.5869 19.1274 18.6401C18.6746 18.6934 18.4693 18.6934 18.1612 18.6806C17.8532 18.6678 17.7808 19.1748 18.2779 19.2941M10.2337 19.1556C9.95363 19.1258 9.90929 19.1897 9.87895 19.5284C9.91162 19.6946 9.9443 19.882 9.99564 20.0205C10.0983 20.3017 10.3037 20.568 10.0843 20.5424C9.86495 20.5168 9.2932 20.127 8.81246 19.5391C8.32938 18.9511 8.52074 18.1502 8.53475 17.95C8.54875 17.7497 8.72378 17.6815 8.50441 17.2555C8.28504 16.8273 8.2407 16.348 8.26871 15.9476C8.29904 15.5471 8.76578 15.2659 8.84046 14.9996C8.9128 14.7334 8.98748 14.4522 9.33754 14.2924C9.68759 14.1326 10.0843 13.7194 10.4647 13.5191C10.8451 13.3168 11.5779 12.9568 11.7972 12.7565C12.0166 12.5563 12.383 12.3688 12.3083 12.1281C12.236 11.8874 12.075 11.6062 12.383 11.6062C12.6911 11.6062 12.8801 11.5807 13.1718 11.3399C13.4635 11.0992 13.6409 10.7115 14.3876 10.5113C15.1344 10.3111 15.4985 9.81685 16.509 9.77638C17.5195 9.73591 18.1332 9.78916 18.7913 9.78916C19.4494 9.78916 19.9465 9.70821 20.5463 9.6017C21.146 9.49306 21.307 9.25448 21.8345 8.98607C22.3619 8.71767 23.1063 8.71767 23.4447 8.69211C23.7808 8.66441 23.9418 8.79862 23.8088 9.01164C23.6781 9.22466 23.4447 9.54632 23.37 9.81472C23.2977 10.081 23.6781 10.1747 23.6781 10.2812C23.6781 10.3877 23.356 10.3089 23.1227 10.2152C22.8893 10.1215 22.7423 9.8552 22.8146 9.72099C22.8893 9.58679 23.517 9.23957 23.4867 9.03933C23.4587 8.83909 23.1507 8.95838 22.7563 9.0798C22.3619 9.19909 22.1845 9.54632 22.2148 9.92123C22.2429 10.294 22.5812 10.375 22.5229 10.5092C22.4646 10.6434 21.9955 10.4154 21.5287 10.2812C21.0597 10.147 19.2301 10.0938 18.6746 10.0938C18.1192 10.0938 16.9197 10.081 15.9956 10.2812C15.0738 10.4815 14.1799 10.9224 13.8579 11.4039C13.5358 11.8853 13.2138 11.832 12.8334 11.832C12.6607 11.832 12.6444 11.8959 12.677 11.9854C12.9664 12.2282 13.2091 12.3156 13.4892 12.3156C13.7692 12.3156 13.8626 12.3944 13.8136 12.5435C13.7645 12.6905 13.6455 12.748 13.0784 12.8055L12.8917 12.8268C12.537 12.9035 12.7937 13.0356 12.7937 13.1165C12.7937 13.1975 12.53 13.2571 12.397 13.2443C12.2873 13.2337 12.082 13.2443 11.9559 13.3104C11.9303 13.3232 11.9093 13.3381 11.8929 13.3572C11.7902 13.4638 11.8276 13.5575 11.6876 13.6299C11.5475 13.7045 11.2278 13.6981 10.9921 13.7109C10.7704 13.7726 10.5861 13.828 10.4717 13.8919C10.1497 14.0666 10.0913 14.3329 10.5301 14.4649C10.9688 14.5992 11.2908 14.6119 11.7296 14.3584C11.8042 14.3158 11.8813 14.2754 11.9583 14.237C12.1216 14.0496 12.1053 14.0048 12.0073 13.8642C11.9046 13.7172 12.0376 13.598 12.3597 13.6363C12.6817 13.6768 12.9734 13.8898 13.1508 13.8238C13.3258 13.7577 13.1368 13.664 13.2091 13.5298C13.2815 13.3956 13.6199 13.4638 13.9559 13.517C14.2336 13.5596 14.4203 13.6938 14.9104 13.779C15.1834 13.7875 15.4145 13.7939 15.5358 13.7833C15.8579 13.7577 16.1496 13.7428 16.1659 13.5958C16.1799 13.4488 15.7995 13.3551 15.9325 13.1826C16.0656 13.01 16.586 12.9951 16.8404 13.0761C17.4705 13.2763 17.2231 13.7407 18.0585 13.8344C18.8917 13.9281 19.4308 13.7577 20.0889 13.8514C20.747 13.9452 21.23 14.0389 21.5077 14.1859C21.7854 14.3329 21.7271 14.5736 21.5077 14.6396C21.2884 14.7078 21.0107 14.5331 20.6443 14.4926C20.2779 14.4522 20.2195 14.4799 20.2195 14.4799C20.2195 14.4799 19.9185 15.1977 19.118 15.2084C18.2382 15.219 18.0725 14.7568 18.0819 14.2881C17.9815 14.1667 17.7808 14.1859 17.7202 14.3499C17.6595 14.5076 17.7948 14.7823 18.0189 15.0209C18.1379 15.1061 18.2429 15.1977 18.3176 15.2829C18.5066 15.496 18.3176 15.8304 18.0399 15.5492C17.7622 15.268 17.1531 14.81 16.5393 14.6716C15.4611 14.4309 14.257 14.2945 13.9209 14.3733C13.9209 14.3733 13.6269 14.4245 13.3305 14.6503C13.0901 14.8612 13.0108 15.1487 12.6677 15.5087C12.1566 16.0434 11.3352 15.9497 10.6491 16.0562C9.96063 16.1627 9.70159 16.625 9.88829 17.2853C10.0026 17.6901 10.3037 17.9776 10.3037 17.9776C11.0505 18.5208 11.9769 18.8233 12.1753 18.5826C12.2126 18.5358 12.229 18.4846 12.229 18.4292C12.1566 18.1417 11.6572 17.0446 12.6234 16.6718C13.5895 16.2969 13.9396 16.2969 14.789 16.1372C15.6385 15.9774 16.7517 15.7622 17.2768 15.7899C17.8042 15.8155 18.2126 16.003 18.4763 15.8964C18.74 15.7899 19.1787 15.8964 19.3537 15.7899C19.5288 15.6834 19.7645 15.5215 20.6116 15.5215C21.4587 15.5215 22.4249 15.709 22.6886 15.4683C22.9523 15.2276 22.5999 15.2553 22.2499 15.202C21.8998 15.1487 21.8695 14.695 22.5439 14.5352C23.216 14.3733 23.013 13.8131 22.3689 13.8131C21.7248 13.8131 21.2277 13.598 20.3199 13.4382C19.4121 13.2784 19.6174 13.1187 18.8847 13.091C18.1519 13.0633 18.4156 12.584 19.4401 12.584C20.4646 12.584 21.4891 12.584 22.4249 12.1026C23.3607 11.6211 23.216 11.0886 23.4214 10.7414C23.6267 10.3941 24.2102 10.2344 24.7096 10.2876C25.2066 10.3409 26.4085 10.4218 27.7527 10.1534C29.0992 9.88715 29.3326 9.8062 29.8017 9.59318C30.2708 9.38016 30.6208 9.24596 30.5345 9.75295C30.4528 10.2259 30.2194 10.5816 29.552 11.1227L29.3909 11.2505L29.2929 11.3293L27.9697 12.3816C27.5987 12.6777 27.755 14.0687 30.3594 14.9911C31.2952 15.3213 31.6453 14.8761 31.881 16.9679C31.8857 17.0148 31.8973 17.0595 31.9183 17.1064C31.972 17.5623 32 18.0245 32 18.491C32 25.5888 25.6967 31.3404 17.9209 31.3404C10.145 31.3404 3.84869 25.5846 3.84869 18.4868C3.84869 11.3889 10.152 5.6374 17.9255 5.6374C17.9255 5.6374 18.8683 5.63314 19.2464 5.6374C20.4202 5.64592 20.6093 4.93018 20.6093 4.93018L21.125 4.99408C21.125 4.99408 21.195 5.35835 21.1017 6.15078C20.9033 7.82725 19.3537 8.76666 17.7015 8.73897H17.4238C11.0225 8.73897 5.83467 13.4744 5.83467 19.3175C5.83467 25.1607 10.9595 29.8386 17.3048 29.8961C18.0725 29.8216 18.908 29.5894 19.5591 29.0163C20.0679 28.4859 20.2032 27.8575 19.7995 27.3569C19.5614 27.0651 19.139 26.8776 18.621 26.9586C18.1659 27.3164 17.6385 27.9363 17.0644 28.586C16.712 28.9865 16.2429 29.257 15.5988 29.1505C14.9547 29.044 14.0213 28.6393 13.6992 28.3198C13.3772 28.0002 13.2605 27.866 12.7331 27.3037C12.2056 26.7413 11.7669 25.5931 11.9139 25.3545C12.061 25.1138 12.236 25.1138 12.9081 25.5675C13.5802 26.0213 13.6409 25.968 13.8159 25.5952C13.9909 25.2203 13.5942 25.3545 13.8579 24.7666C14.1216 24.1787 13.7692 23.137 13.7692 22.5767C13.7692 22.336 13.7412 22.0548 13.6992 21.8205C13.6899 21.2688 14.383 21.0153 14.712 20.9727C14.8007 20.9621 14.852 21.0132 14.8777 21.0558C14.9734 21.8056 14.8567 23.5226 14.6467 24.0998C14.383 24.822 14.5323 25.2246 14.516 25.4887C14.4857 25.9787 14.2243 26.0767 14.0189 26.2641C13.8136 26.4516 13.9606 26.8244 14.2523 26.933C14.5463 27.0395 15.5102 27.4421 15.3655 27.1737C15.2184 26.9074 15.0294 26.4665 15.0294 26.1193C15.0294 25.772 15.3235 25.853 15.8205 26.2535C16.2919 26.6326 16.831 26.2663 17.2978 26.1874C17.4214 26.1661 17.6595 26.0404 17.6618 25.6762C17.6618 25.5249 17.9955 25.2416 18.1822 25.2778C18.3689 25.3162 18.6186 24.969 18.8613 24.7155C19.7598 23.7888 19.5638 23.4373 18.8613 21.9654C18.4996 21.3796 18.1752 20.8981 16.9617 20.5211C16.1099 20.2548 15.2231 20.257 14.5883 20.3933C14.5067 20.389 14.418 20.3976 14.327 20.4274C13.9746 20.5467 13.5498 20.8981 13.4215 21.6352C13.3468 22.0442 13.3188 22.4021 13.3048 22.6023C13.2745 23.0028 12.9828 22.9495 12.7191 22.4425C12.4553 21.9356 12.2803 20.9471 12.3083 20.438C12.3387 19.931 11.9863 19.931 11.5779 19.7436C11.1672 19.5561 10.9641 19.7159 10.8754 19.4219C10.7868 19.1301 10.4414 19.3112 10.236 19.1578M9.39821 17.1703C9.34687 16.9424 9.31653 16.3289 8.98515 16.0924C8.65377 15.8581 8.41573 15.8858 8.44607 16.3097C8.4764 16.7336 8.54875 17.0191 8.85913 17.2086C9.16951 17.3982 9.44955 17.3982 9.39821 17.1724M9.16251 14.6801C9.16251 14.6801 9.03182 14.8548 9.13217 15.0678C9.23485 15.2829 9.36787 15.1615 9.48456 15.349C9.60124 15.5364 9.48456 15.709 9.60124 15.8155C9.71793 15.922 9.86495 15.7622 9.92329 15.6025C9.98164 15.4427 10.376 15.5492 10.6841 15.6557C10.9898 15.7622 11.1672 15.5897 11.1508 15.2553C11.1368 14.9208 10.8288 14.695 10.3177 14.5352C9.80661 14.3733 9.38188 14.3606 9.16251 14.6822M22.9243 16.7443C23.0713 16.6782 23.216 16.6314 23.342 16.6186C23.8974 16.5653 24.7189 16.6186 24.6886 16.0583V15.9966C24.5509 15.8474 24.2102 15.7729 23.6361 15.8964C22.6419 16.1095 21.9091 16.2437 20.768 16.216C19.6268 16.1883 19.0994 16.1372 18.4553 16.5099C17.8112 16.8849 15.7342 17.0446 14.8544 17.3918C13.9769 17.7391 14.4437 18.1672 15.1461 18.1672C15.8485 18.1672 18.6583 17.6326 20.5603 17.2321C21.6058 17.0127 22.3875 16.8401 22.922 16.7421" fill="#2C2D2E"/>
</g>
<defs>
<clipPath id="clip0_7001_54962">
<rect width="36" height="36" fill="white"/>
</clipPath>
</defs>
</svg>
